<?xml version="1.0" encoding="UTF-8" standalone="no"?>
<svg width="20px" height="15px" viewBox="0 0 20 15" version="1.1" xmlns="http://www.w3.org/2000/svg" xmlns:xlink="http://www.w3.org/1999/xlink">
    <!-- Generator: Sketch 43.2 (39069) - http://www.bohemiancoding.com/sketch -->
    <title>Shape</title>
    <desc>Created with Sketch.</desc>
    <defs></defs>
    <g id="Page-1" stroke="none" stroke-width="1" fill="none" fill-rule="evenodd">
        <g id="index_pic" transform="translate(-328.000000, -1354.000000)" fill-rule="nonzero" fill="#9B9B9B">
            <g id="pic" transform="translate(0.000000, 743.000000)">
                <g id="Group-4" transform="translate(317.000000, 597.000000)">
                    <path d="M29.5185185,15.7857143 L25.962963,15.7857143 L25.4074074,14.4642857 C25.2962963,14.1785714 25.037037,14 24.7037037,14 L17.2962963,14 C17,14 16.7037037,14.1785714 16.5925926,14.4642857 L16.037037,15.7857143 L12.4814815,15.7857143 C11.6666667,15.7857143 11,16.4285714 11,17.2142857 L11,27.5714286 C11,28.3571429 11.6666667,29 12.4814815,29 L29.5185185,29 C30.3333333,29 31,28.3571429 31,27.5714286 L31,17.2142857 C31,16.4285714 30.3333333,15.7857143 29.5185185,15.7857143 Z M29.5185185,27.5714286 L12.4814815,27.5714286 L12.4814815,17.2142857 L16.5555556,17.2142857 C16.8518519,17.2142857 17.1481481,17.0357143 17.2592593,16.75 L17.8148148,15.4285714 L24.2222222,15.4285714 L24.7777778,16.75 C24.8888889,17.0357143 25.1481481,17.2142857 25.4814815,17.2142857 L29.5555556,17.2142857 L29.5555556,27.5714286 L29.5185185,27.5714286 Z M21,18.2857143 C18.7407407,18.2857143 16.9259259,20.0357143 16.9259259,22.2142857 C16.9259259,24.3928571 18.7407407,26.1428571 21,26.1428571 C23.2592593,26.1428571 25.0740741,24.3928571 25.0740741,22.2142857 C25.0740741,20.0357143 23.2592593,18.2857143 21,18.2857143 Z M21,24.7142857 C19.5555556,24.7142857 18.4074074,23.6071429 18.4074074,22.2142857 C18.4074074,20.8214286 19.5555556,19.7142857 21,19.7142857 C22.4444444,19.7142857 23.5925926,20.8214286 23.5925926,22.2142857 C23.5925926,23.6071429 22.4444444,24.7142857 21,24.7142857 Z" id="Shape"></path>
                </g>
            </g>
        </g>
    </g>
</svg>