<?xml version="1.0" encoding="UTF-8" standalone="no"?>
<svg width="125px" height="26px" viewBox="0 0 125 26" version="1.1" xmlns="http://www.w3.org/2000/svg" xmlns:xlink="http://www.w3.org/1999/xlink">
    <!-- Generator: Sketch 43.2 (39069) - http://www.bohemiancoding.com/sketch -->
    <title>logo_g</title>
    <desc>Created with Sketch.</desc>
    <defs>
        <polygon id="path-1" points="33.6125 25.4163 33.6125 0.23756087 0.345 0.23756087 0.345 25.4163 33.6125 25.4163"></polygon>
    </defs>
    <g id="m" stroke="none" stroke-width="1" fill="none" fill-rule="evenodd">
        <g id="iPhone-7" transform="translate(-18.000000, -17.000000)">
            <g id="INDEX" transform="translate(-255.000000, -67.000000)">
                <g id="NAV" transform="translate(255.000000, 67.000000)">
                    <g id="logo_g" transform="translate(18.000000, 17.000000)">
                        <g id="Page-1">
                            <polygon id="Fill-1" fill="#009944" points="0 15.0622522 0 25.7459913 13.3863636 25.7459913 13.3863636 22.8956 4.88295455 22.8956 4.88295455 21.7182522 13.3863636 21.7182522 13.3863636 19.0860348 4.88295455 19.0860348 4.88295455 17.9137739 13.3863636 17.9137739 13.3863636 15.0622522"></polygon>
                            <polygon id="Fill-2" fill="#009944" points="25.5282955 15.0332565 22.7373864 21.6768217 19.9697727 15.0519087 14.7993182 15.0519087 19.7777273 25.7441261 25.6828409 25.7441261 30.6498864 15.0332565"></polygon>
                            <path d="M34.1672727,15.0332565 L28.6331818,25.7627783 L33.7201136,25.7627783 L34.4803409,24.2333 L39.75875,24.2333 L40.5070455,25.7441261 L45.5678409,25.7441261 L40.0735227,15.0332565 L34.1672727,15.0332565 Z M37.1257955,18.9281696 L38.4189773,21.534387 L35.8257955,21.534387 L37.1257955,18.9281696 Z" id="Fill-3" fill="#009944"></path>
                            <path d="M53.150625,15.0332565 L47.6159659,25.7627783 L52.7057386,25.7627783 L53.4653977,24.2333 L58.7415341,24.2333 L59.4892614,25.7441261 L64.5511932,25.7441261 L59.0551705,15.0332565 L53.150625,15.0332565 Z M56.1102841,18.9281696 L57.4028977,21.534387 L54.8102841,21.534387 L56.1102841,18.9281696 Z" id="Fill-4" fill="#009944"></path>
                            <polygon id="Fill-5" fill="#009944" points="66.2505682 25.744013 71.24375 25.744013 71.24375 15.0523609 66.2505682 15.0523609"></polygon>
                            <g id="Group-19" transform="translate(73.295455, 0.327883)">
                                <path d="M8.80460227,18.972313 L5.31880682,18.972313 L5.31880682,17.4247478 L8.80460227,17.4247478 C9.23642045,17.4247478 9.58471591,17.7700957 9.58471591,18.1974 C9.58471591,18.6269652 9.23642045,18.972313 8.80460227,18.972313 M13.1091477,20.5650957 C14.3830114,20.5650957 14.3574432,19.1390522 14.3574432,19.1390522 L14.3574432,17.2896609 C14.3574432,14.9462696 11.8619886,14.7275304 11.8619886,14.7275304 L0.384147727,14.7241391 L0.384147727,25.4157913 L5.375625,25.4157913 L5.375625,21.7277478 L8.69153409,21.7277478 C8.93528409,21.7277478 9.09210227,21.8125304 9.19210227,21.923313 C9.37505682,22.1262261 9.36823864,22.4156174 9.36823864,22.4156174 L9.36823864,25.4157913 L14.3619886,25.4157913 L14.3619886,22.4156174 C14.3597159,20.6945304 13.1091477,20.5650957 13.1091477,20.5650957" id="Fill-6" fill="#009944"></path>
                                <path d="M26.1485795,15.3470087 C27.2417614,18.8044435 30.4889205,21.3128783 34.3275568,21.3128783 C39.0627841,21.3128783 42.8997159,17.4942696 42.8997159,12.7860087 C42.8997159,8.25296522 39.3457386,4.54626957 34.8576705,4.2744 L26.1485795,15.3470087 Z" id="Fill-8" fill="#FEFEFE"></path>
                                <g id="Group-12" transform="translate(17.613636, 0.000000)">
                                    <mask id="mask-2" fill="white">
                                        <use xlink:href="#path-1"></use>
                                    </mask>
                                    <g id="Clip-11"></g>
                                    <path d="M16.7092045,21.6604304 C12.9586364,21.6604304 9.66886364,19.3588652 8.37511364,15.8980391 L8.37511364,15.8969087 L17.72,4.01603913 L17.7234091,4.01603913 C22.1825,4.51964783 25.6114773,8.29077826 25.6114773,12.8057348 C25.6114773,17.6875174 21.6165909,21.6604304 16.7092045,21.6604304 L16.7092045,21.6604304 Z M20.1506818,0.23756087 L0.345,25.4163 L24.8001136,25.4163 L33.6126136,0.23756087 L20.1506818,0.23756087 Z" id="Fill-10" fill="#009944" mask="url(#mask-2)"></path>
                                </g>
                                <path d="M41.6160227,16.8660304 C40.9665909,16.5150304 40.2944318,16.2115087 39.6029545,15.9605522 C39.9381818,15.0104217 40.1268182,14.0003783 40.1432955,12.9502043 L42.6802273,12.9502043 C42.6569318,14.3700304 42.2728409,15.7033783 41.6160227,16.8660304 L41.6160227,16.8660304 Z M38.6353409,19.9283783 C38.3853409,19.5858565 38.1023864,19.2795087 37.78875,19.0121609 C38.52,18.1931609 39.1046591,17.2537696 39.5063636,16.2267696 C40.1819318,16.4754652 40.8415909,16.7676826 41.47625,17.1130304 C40.7717045,18.2626826 39.7961364,19.2325957 38.6353409,19.9283783 L38.6353409,19.9283783 Z M35.1171591,21.0842478 C36.0563636,20.5942043 36.8938636,19.966813 37.5989773,19.2252478 C37.8904545,19.4733783 38.1557955,19.7548565 38.3853409,20.0696826 C37.4001136,20.6162478 36.295,20.9717696 35.1171591,21.0842478 L35.1171591,21.0842478 Z M36.2279545,18.3904217 C36.6364773,18.5560304 37.0228409,18.7770304 37.3745455,19.0443783 C36.6398864,19.8147696 35.7609091,20.4636391 34.7654545,20.9463348 C35.3472727,20.1380739 35.8342045,19.2834652 36.2279545,18.3904217 L36.2279545,18.3904217 Z M34.4648864,18.0241609 C34.9807955,18.0382913 35.4836364,18.1287261 35.9575,18.2909435 C35.5603409,19.1964217 35.0609091,20.0629 34.4648864,20.8790739 L34.4648864,18.0241609 Z M34.1785227,20.8722913 C33.5836364,20.0606391 33.0864773,19.1964217 32.6893182,18.2920739 C33.1620455,18.130987 33.66375,18.0382913 34.1785227,18.0241609 L34.1785227,20.8722913 Z M31.2745455,19.0483348 C31.6285227,18.7792913 32.0114773,18.5605522 32.4217045,18.3915522 C32.8148864,19.2834652 33.2995455,20.1380739 33.8802273,20.9463348 C32.8859091,20.4636391 32.0103409,19.8159 31.2745455,19.0483348 L31.2745455,19.0483348 Z M30.2620455,20.0787261 C30.4955682,19.7605087 30.7609091,19.4779 31.05125,19.2263783 C31.7552273,19.966813 32.5881818,20.5930739 33.5251136,21.0808565 C32.3586364,20.9717696 31.2523864,20.6219 30.2620455,20.0787261 L30.2620455,20.0787261 Z M29.1427273,16.2312913 C29.5455682,17.2565957 30.1290909,18.1971174 30.8603409,19.0155522 C30.5478409,19.2857261 30.2620455,19.5926391 30.0126136,19.9385522 C28.8586364,19.2484217 27.8785227,18.286987 27.1705682,17.119813 C27.8052273,16.7744652 28.4665909,16.4782913 29.1427273,16.2312913 L29.1427273,16.2312913 Z M28.7898864,12.9502043 L31.2665909,12.9502043 C31.2745455,13.7454652 31.3478409,14.5232043 31.4842045,15.2862478 C30.7461364,15.4264217 30.0228409,15.621987 29.3154545,15.8650304 C28.9904545,14.9482478 28.8052273,13.9681609 28.7898864,12.9502043 L28.7898864,12.9502043 Z M31.7671591,10.3705522 C32.5626136,10.5062043 33.3682955,10.5802478 34.1785227,10.5892913 L34.1785227,12.6653348 L31.5540909,12.6653348 C31.5609091,11.8892913 31.6342045,11.1245522 31.7671591,10.3705522 L31.7671591,10.3705522 Z M32.5870455,7.58516087 C33.0978409,7.76320435 33.6313636,7.86098696 34.1785227,7.87794348 L34.1785227,10.3044217 C33.3853409,10.2965087 32.5984091,10.2224652 31.8205682,10.0924652 C31.9944318,9.23672609 32.2506818,8.39907391 32.5870455,7.58516087 L32.5870455,7.58516087 Z M36.0671591,7.59533478 C36.4001136,8.39963913 36.6540909,9.23672609 36.8285227,10.0924652 C36.0484091,10.2224652 35.2569318,10.2965087 34.4648864,10.3044217 L34.4648864,7.88020435 C35.0188636,7.86663913 35.5592045,7.7682913 36.0671591,7.59533478 L36.0671591,7.59533478 Z M37.5563636,6.80007391 C38.2626136,7.59420435 38.8273864,8.50363913 39.2188636,9.48937826 C38.5319318,9.7245087 37.8251136,9.91216087 37.1092045,10.0461174 C36.9330682,9.17285652 36.6756818,8.31824783 36.3347727,7.49585652 C36.7711364,7.31781304 37.1825,7.08494348 37.5563636,6.80007391 L37.5563636,6.80007391 Z M35.1075,4.53185652 C36.2927273,4.64207391 37.4057955,4.99985652 38.3932955,5.54755217 C38.1580682,5.86859565 37.8847727,6.16024783 37.5864773,6.4095087 C36.8807955,5.6622913 36.045,5.02303043 35.1075,4.53185652 L35.1075,4.53185652 Z M41.4694318,8.49911739 C40.8313636,8.84503043 40.1665909,9.1429 39.4853409,9.3899 C39.0825,8.37476957 38.5040909,7.43820435 37.7796591,6.62033478 C38.0978409,6.3479 38.38875,6.03646522 38.6427273,5.68942174 C39.8006818,6.38520435 40.7694318,7.3522913 41.4694318,8.49911739 L41.4694318,8.49911739 Z M37.3802273,12.6653348 C37.3722727,11.8740304 37.2955682,11.0912043 37.1603409,10.3253348 C37.8927273,10.1885522 38.6165909,9.9975087 39.3222727,9.75333478 C39.6575,10.6774652 39.8427273,11.6586826 39.8592045,12.6653348 L37.3802273,12.6653348 Z M37.1660227,15.2862478 C37.3001136,14.5232043 37.3722727,13.7409435 37.3802273,12.9502043 L39.8592045,12.9502043 C39.845,13.9659 39.6603409,14.9442913 39.3330682,15.8593783 C38.62625,15.6163348 37.9006818,15.4241609 37.1660227,15.2862478 L37.1660227,15.2862478 Z M37.1103409,15.5643348 C37.8330682,15.699987 38.5467045,15.8899 39.23875,16.1284217 C38.8484091,17.1254652 38.2802273,18.0382913 37.5665909,18.8352478 C37.1904545,18.5430304 36.77625,18.3067696 36.3347727,18.1264652 C36.6768182,17.3012478 36.9376136,16.4455087 37.1103409,15.5643348 L37.1103409,15.5643348 Z M34.4648864,15.3049 C35.2569318,15.3150739 36.0484091,15.3891174 36.8307955,15.5191174 C36.6575,16.3793783 36.40125,17.2181609 36.0682955,18.0275522 C35.5592045,17.8529 35.0188636,17.7522913 34.4648864,17.7415522 L34.4648864,15.3049 Z M32.3120455,18.130987 C31.8705682,18.3101609 31.4597727,18.5486826 31.0825,18.8363783 C30.3722727,18.0394217 29.8018182,17.1288565 29.4097727,16.131813 C30.1035227,15.8944217 30.8126136,15.7033783 31.5353409,15.5665957 C31.7103409,16.4477696 31.97,17.3052043 32.3120455,18.130987 L32.3120455,18.130987 Z M31.8171591,15.5213783 C32.5938636,15.3902478 33.3842045,15.3162043 34.1785227,15.3082913 L34.1785227,17.7415522 C33.6251136,17.7545522 33.0864773,17.8540304 32.5796591,18.0320739 C32.2444318,17.2226826 31.9893182,16.3833348 31.8171591,15.5213783 L31.8171591,15.5213783 Z M37.0938636,12.9502043 C37.0847727,13.7251174 37.01375,14.4926826 36.8830682,15.2387696 C36.0842045,15.1053783 35.2773864,15.0302043 34.4648864,15.0234217 L34.4648864,12.9502043 L37.0938636,12.9502043 Z M34.4648864,10.5892913 C35.2739773,10.5813783 36.0819318,10.5062043 36.8785227,10.3705522 C37.0114773,11.1234217 37.0847727,11.8892913 37.0938636,12.6653348 L34.4648864,12.6653348 L34.4648864,10.5892913 Z M31.5529545,12.9502043 L34.1785227,12.9502043 L34.1785227,15.0234217 C33.3660227,15.0324652 32.5603409,15.1087696 31.7660227,15.2432913 C31.6307955,14.4926826 31.5597727,13.7262478 31.5529545,12.9502043 L31.5529545,12.9502043 Z M42.6802273,12.6653348 L40.1432955,12.6653348 C40.1268182,11.6247696 39.9347727,10.6102043 39.58875,9.65611739 C40.2842045,9.40007391 40.9603409,9.09768261 41.61375,8.74442174 C42.2728409,9.90876957 42.6569318,11.2472043 42.6802273,12.6653348 L42.6802273,12.6653348 Z M35.3370455,4.01637826 L35.1393182,4.26563913 L34.9807955,4.46742174 L34.9398864,4.51942174 L34.8023864,4.69407391 C35.7745455,5.17733478 36.63875,5.81998696 37.3643182,6.58811739 C37.0114773,6.85207391 36.6290909,7.07194348 36.2228409,7.2352913 C35.8376136,6.35411739 35.3592045,5.50742174 34.7876136,4.71046522 L34.6057955,4.94559565 C35.1376136,5.70185652 35.58875,6.50107391 35.9529545,7.3325087 C35.4802273,7.49359565 34.9773864,7.58176957 34.4648864,7.59646522 L34.4648864,5.1259 L34.1785227,5.48876957 L34.1785227,7.59194348 C33.6825,7.57724783 33.1932955,7.49020435 32.7268182,7.33137826 C32.7171591,7.33024783 32.0489773,8.19446522 32.0489773,8.19446522 C31.8381818,8.80037826 31.6648864,9.41872609 31.53875,10.0461174 C31.2677273,9.9975087 31.0001136,9.93420435 30.7319318,9.86807391 L30.53875,10.1167696 C30.8518182,10.1970304 31.17,10.2654217 31.4864773,10.3253348 C31.3506818,11.0934652 31.2745455,11.8740304 31.2665909,12.6653348 L28.7876136,12.6653348 L28.7995455,12.3245087 L28.3080682,12.9502043 L28.5035227,12.9502043 C28.5211364,14.0015087 28.7120455,15.0149435 29.0495455,15.9616826 C28.3557955,16.2171609 27.6836364,16.5195522 27.0342045,16.8716826 C26.7734091,16.4076391 26.5546591,15.9175957 26.3847727,15.3987261 L26.1876136,15.6474217 L25.98875,15.897813 C27.2825,19.3586391 30.5722727,21.6602043 34.3228409,21.6602043 C39.2302273,21.6602043 43.2251136,17.6872913 43.2251136,12.8055087 C43.2251136,8.29168261 39.7972727,4.51942174 35.3370455,4.01637826 L35.3370455,4.01637826 Z" id="Fill-13" fill="#EA5406"></path>
                                <polygon id="Fill-15" fill="#FEFEFE" points="35.1961932 14.792813 37.295625 15.751987 36.3024432 13.6324217 39.0160795 12.9688565 39.0160795 12.6500739 36.3024432 11.9780304 37.3371023 9.81268261 35.1819886 10.8187696 34.5092614 6.97811739 34.1285795 6.97811739 33.4694886 10.8108565 31.3234659 9.81268261 32.3319886 11.981987 29.6285795 12.6500739 29.6285795 12.9649 32.3319886 13.6149 31.3541477 15.7576391 33.4626705 14.8046826 34.1228977 18.6402478 34.4950568 18.637987"></polygon>
                                <polygon id="Fill-17" fill="#009944" points="34.3294886 7.18996087 35.0328977 11.1120043 36.9221023 10.2234826 36.0294886 12.1011348 38.8607386 12.8048304 36.0294886 13.5057 36.8874432 15.3471783 35.0328977 14.5044391 34.3175568 18.3903087 33.6203977 14.5044391 31.7635795 15.3505696 32.6169886 13.5057 29.7919886 12.8048304 32.6169886 12.1011348 31.7351705 10.2234826 33.6203977 11.1046565"></polygon>
                            </g>
                        </g>
                    </g>
                </g>
            </g>
        </g>
    </g>
</svg>