<?xml version="1.0" encoding="UTF-8" standalone="no"?>
<svg width="200px" height="44px" viewBox="0 0 200 44" version="1.1" xmlns="http://www.w3.org/2000/svg" xmlns:xlink="http://www.w3.org/1999/xlink">
    <!-- Generator: Sketch 43.2 (39069) - http://www.bohemiancoding.com/sketch -->
    <title>logo_w</title>
    <desc>Created with Sketch.</desc>
    <defs>
        <polygon id="path-1" points="57.8603604 21.890045 57.8603604 0.536936937 0.666666667 0.536936937 0.666666667 43.2431532 57.8603604 43.2431532 57.8603604 21.890045"></polygon>
        <polygon id="path-3" points="0 43.6074775 199.301802 43.6074775 199.301802 0.901171171 0 0.901171171"></polygon>
    </defs>
    <g id="Page-1" stroke="none" stroke-width="1" fill="none" fill-rule="evenodd">
        <g id="index_pic" transform="translate(-39.000000, -33.000000)">
            <g id="NAV" transform="translate(0.000000, 33.000000)">
                <g id="logo_w" transform="translate(39.000000, 0.000000)">
                    <g>
                        <path d="M157.725405,26.273964 C159.45964,31.7847748 164.609189,35.7847748 170.696577,35.7847748 C178.207387,35.7847748 184.293874,29.6964865 184.293874,22.1901802 C184.293874,14.9613514 178.656937,9.05144144 171.538919,8.61810811 L157.725405,26.273964 Z" id="Fill-1" fill="#FEFEFE"></path>
                        <g id="Group-5" transform="translate(141.441441, 0.364234)">
                            <mask id="mask-2" fill="white">
                                <use xlink:href="#path-1"></use>
                            </mask>
                            <g id="Clip-4"></g>
                            <path d="M17.4936937,26.9936036 C19.5315315,31.6954054 24.0711712,34.6936036 29.2477477,34.6936036 C36.3279279,34.6936036 42.0891892,28.9341441 42.0891892,21.8575676 C42.0891892,15.5620721 37.5441441,10.2458559 31.4054054,9.21342342 L17.4936937,26.9936036 Z M0.666666667,43.2431532 L34.0846847,0.536846847 L57.8603604,0.536846847 L42.9918919,43.2431532 L0.666666667,43.2431532 Z" id="Fill-3" fill="#FEFEFE" mask="url(#mask-2)"></path>
                        </g>
                        <path d="M170.689099,36.3387387 C164.741351,36.3387387 159.523333,32.6702703 157.471081,27.1504505 L157.471081,27.1486486 L172.294505,8.20630631 L172.29991,8.20630631 C179.371081,9.00900901 184.80982,15.0216216 184.80982,22.2216216 C184.80982,30.0045045 178.473784,36.3387387 170.689099,36.3387387 L170.689099,36.3387387 Z M176.149459,2.18198198 L144.735045,42.3261261 L183.523333,42.3261261 L197.49991,2.18198198 L176.149459,2.18198198 Z" id="Fill-6" fill="#009944"></path>
                        <path d="M182.257387,28.6933333 C181.227658,28.1356757 180.161892,27.6518919 179.064595,27.2500901 C179.596126,25.7338739 179.897027,24.1257658 179.923153,22.4518919 L183.945676,22.4518919 C183.90964,24.714955 183.300631,26.8401802 182.257387,28.6933333 L182.257387,28.6933333 Z M177.531261,33.5762162 C177.133964,33.0302703 176.684414,32.5410811 176.188018,32.1158559 C177.349279,30.8104505 178.274505,29.3122523 178.911441,27.6762162 C179.983514,28.0708108 181.028559,28.5365766 182.035766,29.0888288 C180.91955,30.9212613 179.370901,32.469009 177.531261,33.5762162 L177.531261,33.5762162 Z M171.951081,35.4203604 C173.439369,34.6392793 174.77,33.6374775 175.887117,32.4572973 C176.347477,32.850991 176.77,33.2996396 177.133964,33.8014414 C175.570901,34.6726126 173.818649,35.2428829 171.951081,35.4203604 L171.951081,35.4203604 Z M173.711441,31.1248649 C174.36009,31.3888288 174.972703,31.7410811 175.531261,32.1681081 C174.365495,33.3969369 172.97,34.4311712 171.391622,35.2005405 C172.315045,33.9122523 173.087117,32.5500901 173.711441,31.1248649 L173.711441,31.1248649 Z M170.915946,30.5392793 C171.733964,30.5636036 172.531261,30.7077477 173.282613,30.9663063 C172.652883,32.4113514 171.860991,33.7906306 170.915946,35.0915315 L170.915946,30.5392793 Z M170.460991,35.0825225 C169.518649,33.787027 168.729459,32.4113514 168.098829,30.9681081 C168.848378,30.7113514 169.644775,30.5636036 170.460991,30.5392793 L170.460991,35.0825225 Z M165.855586,32.1753153 C166.415946,31.7446847 167.024955,31.3978378 167.673604,31.1266667 C168.297928,32.5500901 169.066396,33.9122523 169.988018,35.2005405 C168.411441,34.4311712 167.023153,33.3969369 165.855586,32.1753153 L165.855586,32.1753153 Z M164.25018,33.8158559 C164.61955,33.3086486 165.041171,32.8581982 165.500631,32.4590991 C166.61955,33.6374775 167.939369,34.6374775 169.424955,35.414955 C167.574505,35.2428829 165.82045,34.6825225 164.25018,33.8158559 L164.25018,33.8158559 Z M162.474505,27.6816216 C163.113243,29.3158559 164.038468,30.814955 165.197928,32.1230631 C164.701532,32.5518919 164.25018,33.0410811 163.853784,33.5915315 C162.024054,32.4942342 160.468198,30.96 159.346577,29.0996396 C160.353784,28.5473874 161.402432,28.0753153 162.474505,27.6816216 L162.474505,27.6816216 Z M161.914144,22.4518919 L165.843874,22.4518919 C165.855586,23.7194595 165.971802,24.9581982 166.187117,26.1753153 C165.017748,26.3987387 163.87,26.7104505 162.748378,27.0978378 C162.233964,25.6365766 161.939369,24.0744144 161.914144,22.4518919 L161.914144,22.4518919 Z M166.637568,18.3383784 C167.898829,18.5545946 169.178108,18.6744144 170.460991,18.687027 L170.460991,21.996036 L166.297928,21.996036 C166.308739,20.7609009 166.426757,19.5401802 166.637568,18.3383784 L166.637568,18.3383784 Z M167.937568,13.8969369 C168.747477,14.1807207 169.593423,14.3365766 170.460991,14.3636036 L170.460991,18.232973 C169.204234,18.2203604 167.954685,18.1023423 166.722252,17.8951351 C166.998829,16.5311712 167.405135,15.1942342 167.937568,13.8969369 L167.937568,13.8969369 Z M173.455586,13.9131532 C173.985315,15.196036 174.388919,16.5311712 174.664595,17.8951351 C173.426757,18.1023423 172.172703,18.2203604 170.915946,18.232973 L170.915946,14.3672072 C171.794324,14.3473874 172.651081,14.1888288 173.455586,13.9131532 L173.455586,13.9131532 Z M175.82045,12.6446847 C176.939369,13.9113514 177.834865,15.3627027 178.455586,16.9320721 C177.367297,17.3086486 176.243874,17.6059459 175.110541,17.8194595 C174.831261,16.4275676 174.423153,15.0654054 173.881712,13.7545946 C174.573604,13.4717117 175.227658,13.0996396 175.82045,12.6446847 L175.82045,12.6446847 Z M171.934865,9.02846847 C173.815045,9.20594595 175.580811,9.77441441 177.146577,10.6473874 C176.773604,11.1609009 176.339369,11.623964 175.867297,12.0212613 C174.747477,10.8320721 173.421351,9.81315315 171.934865,9.02846847 L171.934865,9.02846847 Z M182.024955,15.3536937 C181.013243,15.905045 179.96009,16.3798198 178.877207,16.7744144 C178.239369,15.1572973 177.323153,13.6627027 176.171802,12.3590991 C176.678108,11.9230631 177.138468,11.4284685 177.543874,10.8762162 C179.378108,11.9843243 180.914144,13.5257658 182.024955,15.3536937 L182.024955,15.3536937 Z M175.541171,21.996036 C175.527658,20.7347748 175.406036,19.487027 175.190721,18.2663063 C176.352883,18.0482883 177.49973,17.7437838 178.617748,17.3527928 C179.15018,18.8293694 179.444775,20.3915315 179.470901,21.996036 L175.541171,21.996036 Z M175.200631,26.1753153 C175.413243,24.9581982 175.527658,23.7122523 175.541171,22.4518919 L179.470901,22.4518919 C179.45018,24.0726126 179.156486,25.6302703 178.635766,27.0888288 C177.515045,26.7032432 176.363694,26.3969369 175.200631,26.1753153 L175.200631,26.1753153 Z M175.112342,26.6185586 C176.258288,26.8347748 177.390721,27.1392793 178.487117,27.5194595 C177.868198,29.1086486 176.967297,30.5636036 175.835766,31.8356757 C175.239369,31.3681081 174.581712,30.9915315 173.881712,30.7041441 C174.424955,29.387027 174.838468,28.0230631 175.112342,26.6185586 L175.112342,26.6185586 Z M170.915946,26.205045 C172.172703,26.2212613 173.426757,26.3392793 174.668198,26.5464865 C174.392523,27.9176577 173.988018,29.2545946 173.457387,30.5464865 C172.651081,30.2681081 171.794324,30.1077477 170.915946,30.0888288 L170.915946,26.205045 Z M167.500631,30.7113514 C166.801532,30.9969369 166.149279,31.378018 165.549279,31.8374775 C164.424054,30.5654054 163.518649,29.1122523 162.897928,27.5230631 C163.997928,27.1446847 165.122252,26.8401802 166.268198,26.623964 C166.548378,28.0284685 166.959189,29.3951351 167.500631,30.7113514 L167.500631,30.7113514 Z M166.716847,26.5518919 C167.947477,26.3410811 169.202432,26.2230631 170.460991,26.2104505 L170.460991,30.0888288 C169.584414,30.1113514 168.729459,30.2699099 167.923153,30.5527928 C167.395225,29.2618018 166.988919,27.923964 166.716847,26.5518919 L166.716847,26.5518919 Z M175.085315,22.4518919 C175.072703,23.687027 174.959189,24.9104505 174.751081,26.1014414 C173.482613,25.887027 172.204234,25.7672072 170.915946,25.7563964 L170.915946,22.4518919 L175.085315,22.4518919 Z M170.915946,18.687027 C172.198829,18.6744144 173.480811,18.5545946 174.743874,18.3383784 C174.955586,19.5383784 175.072703,20.7609009 175.085315,21.996036 L170.915946,21.996036 L170.915946,18.687027 Z M166.296126,22.4518919 L170.460991,22.4518919 L170.460991,25.7563964 C169.173604,25.7708108 167.893423,25.8924324 166.635766,26.1086486 C166.41955,24.9104505 166.306937,23.6906306 166.296126,22.4518919 L166.296126,22.4518919 Z M183.945676,21.996036 L179.923153,21.996036 C179.897027,20.3374775 179.592523,18.7203604 179.042072,17.1978378 C180.145676,16.7915315 181.217748,16.3077477 182.255586,15.7464865 C183.300631,17.6005405 183.90964,19.7356757 183.945676,21.996036 L183.945676,21.996036 Z M172.29973,8.20684685 L171.986216,8.60594595 L171.733964,8.92666667 L171.670901,9.00864865 L171.451081,9.28702703 C172.993423,10.0572973 174.361892,11.0834234 175.515045,12.3086486 C174.955586,12.7266667 174.348378,13.0807207 173.704234,13.3392793 C173.093423,11.932973 172.333964,10.5852252 171.428559,9.31315315 L171.138468,9.68792793 C171.982613,10.8951351 172.698829,12.169009 173.275405,13.4942342 C172.525856,13.750991 171.729459,13.8915315 170.915946,13.914955 L170.915946,9.97531532 L170.460991,10.5554955 L170.460991,13.9077477 C169.674505,13.8852252 168.897928,13.7455856 168.159189,13.4924324 C168.142973,13.4888288 167.083514,14.8681081 167.083514,14.8681081 C166.75018,15.8347748 166.475405,16.8194595 166.275405,17.8194595 C165.843874,17.7437838 165.42045,17.6410811 164.995225,17.5356757 L164.688018,17.9338739 C165.184414,18.0618018 165.68982,18.1726126 166.190721,18.2663063 C165.977207,19.4906306 165.855586,20.7347748 165.843874,21.996036 L161.911441,21.996036 L161.931261,21.4527928 L161.15018,22.4518919 L161.461892,22.4518919 C161.48982,24.1275676 161.791622,25.7410811 162.327658,27.2518919 C161.227658,27.6609009 160.159189,28.1428829 159.13036,28.7023423 C158.717748,27.9645045 158.369099,27.1816216 158.101532,26.3545946 L157.787117,26.750991 L157.470901,27.1500901 C159.524054,32.6699099 164.741171,36.3383784 170.688919,36.3383784 C178.473604,36.3383784 184.80964,30.0041441 184.80964,22.2212613 C184.80964,15.0230631 179.372703,9.00864865 172.29973,8.20684685 L172.29973,8.20684685 Z" id="Fill-8" fill="#EA5406"></path>
                        <polygon id="Fill-10" fill="#FEFEFE" points="172.075676 25.3889189 175.405405 26.9195495 173.830631 23.5393694 178.134234 22.4817117 178.134234 21.9718018 173.830631 20.9006306 175.47027 17.4492793 172.053153 19.0528829 170.985586 12.9312613 170.381982 12.9312613 169.336937 19.0402703 165.933333 17.4492793 167.534234 20.9069369 163.242342 21.9718018 163.242342 22.4736036 167.534234 23.5114414 165.981982 26.9285586 169.326126 25.4078378 170.372973 31.5231532 170.963964 31.5195495"></polygon>
                        <polygon id="Fill-12" fill="#009944" points="170.700541 13.2672072 171.816757 19.5203604 174.812252 18.1023423 173.396036 21.0969369 177.887027 22.2203604 173.396036 23.3374775 174.758198 26.2744144 171.816757 24.9293694 170.681622 31.1248649 169.576216 24.9293694 166.631171 26.2771171 167.986126 23.3374775 163.503243 22.2203604 167.986126 21.0969369 166.587928 18.1023423 169.576216 19.5086486"></polygon>
                        <polygon id="Fill-14" fill="#FEFEFE" points="21.2318919 29.8423423 21.2318919 25.2954955 0.00036036036 25.2954955 0.00036036036 42.3315315 21.2318919 42.3315315 21.2318919 37.7846847 7.7427027 37.7846847 7.7427027 35.9072072 21.2318919 35.9072072 21.2318919 31.7108108 7.7427027 31.7108108 7.7427027 29.8423423"></polygon>
                        <polygon id="Fill-16" fill="#FEFEFE" points="23.4718919 25.2798198 31.6736937 25.2798198 36.061982 35.8428829 40.4899099 25.2500901 48.6097297 25.2500901 40.7331532 42.3266667 31.3664865 42.3266667"></polygon>
                        <path d="M56.8201802,35.6154955 L58.885045,31.4596396 L60.9354955,35.6154955 L56.8201802,35.6154955 Z M64.2481081,42.3263063 L72.2742342,42.3263063 L63.558018,25.2497297 L54.1913514,25.2497297 L45.4138739,42.356036 L53.4823423,42.356036 L54.6886486,39.9190991 L63.058018,39.9190991 L64.2481081,42.3263063 Z" id="Fill-18" fill="#FEFEFE"></path>
                        <path d="M86.9326126,35.6154955 L88.9938739,31.4596396 L91.0434234,35.6154955 L86.9326126,35.6154955 Z M94.3533333,42.3263063 L102.38036,42.3263063 L93.6668468,25.2497297 L84.2992793,25.2497297 L75.5236036,42.356036 L83.5956757,42.356036 L84.8010811,39.9190991 L93.1677477,39.9190991 L94.3533333,42.3263063 Z" id="Fill-20" fill="#FEFEFE"></path>
                        <mask id="mask-4" fill="white">
                            <use xlink:href="#path-3"></use>
                        </mask>
                        <g id="Clip-23"></g>
                        <polygon id="Fill-22" fill="#FEFEFE" mask="url(#mask-4)" points="105.077477 42.3263964 112.995495 42.3263964 112.995495 25.2795495 105.077477 25.2795495"></polygon>
                        <path d="M130.215405,32.0523423 L124.688378,32.0523423 L124.688378,29.5856757 L130.215405,29.5856757 C130.900991,29.5856757 131.454144,30.1361261 131.454144,30.8154054 C131.454144,31.5018919 130.900991,32.0523423 130.215405,32.0523423 M137.043333,34.5910811 C139.064054,34.5910811 139.023514,32.3199099 139.023514,32.3199099 L139.023514,29.3685586 C139.023514,25.6334234 135.065856,25.2847748 135.065856,25.2847748 L116.861351,25.2793694 L116.861351,42.3262162 L124.778468,42.3262162 L124.778468,36.446036 L130.037027,36.446036 C130.424414,36.446036 130.672162,36.5811712 130.831622,36.7595495 C131.122613,37.0811712 131.111802,37.5424324 131.111802,37.5424324 L131.111802,42.3262162 L139.030721,42.3262162 L139.030721,37.5424324 C139.027117,34.7991892 137.043333,34.5910811 137.043333,34.5910811" id="Fill-24" fill="#FEFEFE" mask="url(#mask-4)"></path>
                    </g>
                </g>
            </g>
        </g>
    </g>
</svg>