<?xml version="1.0" encoding="utf-8"?>
<!-- Generator: Adobe Illustrator 20.0.0, SVG Export Plug-In . SVG Version: 6.00 Build 0)  -->
<svg version="1.1" id="圖層_1" xmlns="http://www.w3.org/2000/svg" xmlns:xlink="http://www.w3.org/1999/xlink" x="0px" y="0px"
	 viewBox="0 0 90.2 84.5" style="enable-background:new 0 0 90.2 84.5;" xml:space="preserve">
<style type="text/css">
	.st0{fill:#FFFFFF;}
</style>
<path class="st0" d="M53.3,68.7l11.9,9.2v6.6l-20.2-6l-20.2,5.9v-6.6l11.9-9.2V50.1L0,62.9l3.7-8.3l8.8-6.1v-3.3
	c0-2.5,2-4.5,4.5-4.5c1.6,0,3,0.8,3.8,2.1l16-11.1V16.5c0-4.6,3.7-16.5,8.3-16.5s8.3,12,8.3,16.5v15.2l16,11.1
	c0.8-1.2,2.2-2.1,3.8-2.1c2.5,0,4.5,2,4.5,4.5v3.3l8.8,6.1l3.7,8.3L53.3,50.1V68.7z"/>
</svg>
