<?xml version="1.0" encoding="utf-8"?>
<!-- Generator: Adobe Illustrator 20.0.0, SVG Export Plug-In . SVG Version: 6.00 Build 0)  -->
<svg version="1.1" id="圖層_1" xmlns="http://www.w3.org/2000/svg" xmlns:xlink="http://www.w3.org/1999/xlink" x="0px" y="0px"
	 viewBox="0 0 34 34" style="enable-background:new 0 0 34 34;" xml:space="preserve">
<style type="text/css">
	.st0{fill:#FFFFFF;}
	.st1{enable-background:new    ;}
</style>
<title>Q</title>
<desc>Created with Sketch.</desc>
<g id="Page-1">
	<g id="index_pic" transform="translate(-206.000000, -6365.000000)">
		<g id="qa" transform="translate(-366.000000, 6098.000000)">
			<g id="Group-13" transform="translate(363.000000, 75.000000)">
				<g id="Q" transform="translate(210.000000, 193.000000)">
					<g id="Oval-2">
						<path class="st0" d="M16,32.5C6.9,32.5-0.5,25.1-0.5,16C-0.5,6.9,6.9-0.5,16-0.5c9.1,0,16.5,7.4,16.5,16.5
							C32.5,25.1,25.1,32.5,16,32.5z M16,0.5C7.5,0.5,0.5,7.5,0.5,16s7,15.5,15.5,15.5s15.5-7,15.5-15.5S24.5,0.5,16,0.5z"/>
					</g>
					<g class="st1">
						<g>
							<path class="st0" d="M20.5,18.6c-0.2,0.7-0.5,1.2-0.9,1.6l1.3,1.2l-1.3,1.3l-1.4-1.3c-0.4,0.3-0.8,0.4-1.1,0.5
								c-0.5,0.2-1.1,0.3-1.9,0.3c-1.5,0-2.7-0.4-3.7-1.3c-1.2-1.1-1.8-2.7-1.8-4.8c0-2.1,0.6-3.7,1.8-4.8c1-0.9,2.2-1.3,3.7-1.3
								c1.5,0,2.7,0.5,3.8,1.4c1.2,1.1,1.8,2.6,1.8,4.5C20.8,17.1,20.7,17.9,20.5,18.6z M16.1,20.2c0.1,0,0.3-0.1,0.5-0.2l-1.2-1.1
								l1.2-1.3l1.2,1.1c0.2-0.4,0.3-0.7,0.4-1c0.1-0.4,0.2-0.9,0.2-1.5c0-1.3-0.3-2.3-0.8-3c-0.5-0.7-1.3-1.1-2.3-1.1
								c-1,0-1.7,0.3-2.3,1c-0.6,0.7-0.9,1.7-0.9,3c0,1.6,0.4,2.7,1.2,3.4c0.5,0.4,1.2,0.7,1.9,0.7C15.6,20.3,15.8,20.2,16.1,20.2z"
								/>
						</g>
					</g>
				</g>
			</g>
		</g>
	</g>
</g>
</svg>
