<?xml version="1.0" encoding="utf-8"?>
<!-- Generator: Adobe Illustrator 20.0.0, SVG Export Plug-In . SVG Version: 6.00 Build 0)  -->
<svg version="1.1" id="圖層_1" xmlns="http://www.w3.org/2000/svg" xmlns:xlink="http://www.w3.org/1999/xlink" x="0px" y="0px"
	 viewBox="0 0 169 52.2" style="enable-background:new 0 0 169 52.2;" xml:space="preserve">
<style type="text/css">
	.st0{fill:#FFFFFF;}
</style>
<g id="Group-14">
	<g id="Group-3" transform="translate(0.000000, 2.000000)">
		<path id="Fill-1" class="st0" d="M47.6,0.7l4.7,5c-0.4,0.5-1.2,0.7-2.5,0.7c-1.9,3.5-5.8,10-8.3,13.5c7.1,4.4,10.2,8.9,10.2,13.5
			v0.2c0,5.3-2.3,8.5-8.8,9c0-2.9-0.9-3.6-4.2-4v-0.8h5.4c2.2,0,3.1-1.8,3.1-4.7c0-4.4-1.9-8.7-6.8-13c1.3-3.7,3.5-10.8,4.9-15.3
			h-8.9v43.9c0,0.3-1.4,1.5-3.6,1.5h-0.7V1.4l5.1,2.1h7.9L47.6,0.7z M21.9,4.7h-7.4c-0.1,3.7-0.2,7.4-0.3,11.1h7.6L21.9,4.7z
			 M14,17.1c-0.2,3.8-0.7,7.6-1.4,11.2h8.8c0.2-3.2,0.2-7,0.3-11.2H14z M21.2,3.5l2.2-2.8l5.1,4.1c-0.4,0.4-1.1,0.8-2.4,1
			c-0.3,27-0.7,38.7-3.3,41.5c-1.7,1.8-3.1,2.6-6.5,2.6c0-2.6-0.2-3.6-5.1-4.4v-0.9c1.9,0.1,4.6,0.1,6,0.1c1,0,1.4-0.1,1.9-0.7
			c1.2-1.3,1.8-5.9,2.2-14.5h-9c-1.8,7.6-5,14.6-11.4,20.5L0,49.1c4.6-5.9,7.1-12.6,8.3-19.6H1.1l-0.4-1.3h7.9
			c0.6-3.7,0.9-7.4,1.1-11.2H1.1l-0.4-1.3h9c0.2-3.5,0.2-7.2,0.2-11H1.2L0.9,3.5H21.2z"/>
	</g>
	<path id="Fill-4" class="st0" d="M108,25.7c1.8,0.7,2.1,0.9,2.1,1.5c0,1.8-1.6,2.6-6.7,2.6H93.3c-5.2,0-6.2-1-6.2-5.6V1.1l6.3,0.5
		c-0.1,0.7-0.4,1-2,1.3v11.3c4.8-2.1,9.8-5.1,12.4-7.4l5.1,3.6c-0.3,0.3-0.7,0.5-1.3,0.5c-0.4,0-0.9-0.1-1.4-0.2
		c-3.6,1.8-9.4,3.8-14.8,5v8.8c0,1.6,0.2,1.8,2.1,1.8h10c0.9,0,1.5-0.1,2-0.8s1.3-3.4,2.1-6.6h0.5L108,25.7z M95.8,35.2l2.7-3.6
		l5.3,3.7c-0.4,0.8-1.1,1-2.6,1H66.1l-0.3-1.2L95.8,35.2L95.8,35.2z M101.3,48.9l2.9-3.8l5.5,3.9c-0.4,0.8-1.1,1.1-2.6,1.1H59.8
		l-0.3-1.2H101.3z M85.6,25.1c-5,1.6-12.1,3.6-22.4,6.2c-0.3,0.7-0.8,1.1-1.4,1.3L59,27.3c1-0.1,2.2-0.2,3.6-0.3V7.7l6.1,0.5
		c-0.1,0.8-0.6,1-2.1,1.3v17.1l4.7-0.5v-25L78,1.7c-0.1,0.9-0.7,1.2-2.5,1.5v9.5h2.7l2.4-3.6l4.6,3.7c-0.4,0.8-1.1,1.1-2.6,1.1h-7.2
		v11.6c3.2-0.4,6.6-0.9,10-1.3L85.6,25.1z"/>
	<path id="Fill-6" class="st0" d="M131.8,35.2h10.7V22.5h-10.7V35.2z M163.2,31.3l5.8,4c-0.4,0.8-1.1,1.1-2.7,1.1h-19.1v14.3
		c-0.1,0.3-1.5,1.4-3.8,1.4h-0.8V36.4h-24.2l-0.3-1.2h9.3V19.1l5.2,2.1h10V10.4h-11.1c-3.3,5.7-7.5,10.3-12,13.5l-0.7-0.6
		c4.6-5,9.2-13.9,11.8-23.3l6.6,2.3c-0.2,0.7-0.7,1-2.2,0.9c-0.9,2-1.8,4-2.9,5.8h25.6l3.1-3.9l5.7,4c-0.4,0.8-1,1-2.6,1h-16.6v10.8
		h8.7l2.9-3.6l5.4,3.8c-0.4,0.8-1.1,1.1-2.6,1.1h-14.3v12.7h13L163.2,31.3z"/>
</g>
</svg>
