<?xml version="1.0" encoding="utf-8"?>
<!-- Generator: Adobe Illustrator 20.0.0, SVG Export Plug-In . SVG Version: 6.00 Build 0)  -->
<svg version="1.1" id="圖層_1" xmlns="http://www.w3.org/2000/svg" xmlns:xlink="http://www.w3.org/1999/xlink" x="0px" y="0px"
	 viewBox="0 0 143.9 47" style="enable-background:new 0 0 143.9 47;" xml:space="preserve">
<style type="text/css">
	.st0{enable-background:new    ;}
	.st1{fill:#FFFFFF;}
	.st2{font-family:'Lato-Medium';}
	.st3{font-size:17.4248px;}
	.st4{font-size:16.0825px;}
</style>
<g id="Group-5" transform="translate(193.000000, 2.000000)">
	<g class="st0">
		<path class="st1" d="M-191.1,29.3v4.2h5V35h-5v5.3h-1.9V27.8h7.8v1.5H-191.1z"/>
		<path class="st1" d="M-184.9,32.7c0.5-0.5,1-0.8,1.6-1.1c0.6-0.2,1.2-0.3,1.9-0.3c0.5,0,1,0.1,1.3,0.2c0.4,0.2,0.7,0.4,1,0.7
			c0.3,0.3,0.5,0.7,0.6,1.1c0.1,0.4,0.2,0.9,0.2,1.4v5.6h-0.8c-0.2,0-0.3,0-0.4-0.1s-0.2-0.2-0.2-0.3v-0.8c-0.2,0.2-0.5,0.4-0.7,0.6
			c-0.2,0.2-0.5,0.3-0.7,0.4c-0.2,0.1-0.5,0.2-0.8,0.3c-0.3,0.1-0.6,0.1-0.9,0.1s-0.7,0-1-0.1s-0.6-0.2-0.8-0.4
			c-0.2-0.2-0.4-0.6-0.5-0.9c-0.1-0.3-0.2-0.6-0.2-1c0-0.3,0.1-0.7,0.3-1s0.5-0.6,0.9-0.9c0.4-0.3,1-0.5,1.7-0.6
			c0.7-0.2,1.5-0.3,2.5-0.3v-0.6c0-0.7-0.1-1.2-0.4-1.5s-0.7-0.5-1.3-0.5c-0.4,0-0.7,0-0.9,0.1c-0.3,0.1-0.5,0.2-0.7,0.3
			s-0.3,0.2-0.5,0.3c-0.1,0.1-0.3,0.1-0.4,0.1c-0.1,0-0.2,0-0.3-0.1c-0.1-0.1-0.2-0.1-0.2-0.2L-184.9,32.7z M-179.9,36.4
			c-0.7,0-1.3,0.1-1.8,0.2c-0.5,0.1-0.9,0.2-1.2,0.3c-0.3,0.1-0.5,0.3-0.7,0.5c-0.1,0.2-0.2,0.4-0.2,0.6c0,0.2,0,0.4,0.1,0.6
			c0.1,0.2,0.2,0.3,0.3,0.4c0.1,0.1,0.3,0.2,0.4,0.2c0.2,0,0.4,0.1,0.5,0.1c0.3,0,0.5,0,0.7-0.1s0.4-0.1,0.6-0.2
			c0.2-0.1,0.4-0.2,0.5-0.4c0.2-0.1,0.3-0.3,0.5-0.5v-1.7H-179.9z"/>
		<path class="st1" d="M-174.2,33.1c0.3-0.6,0.6-1,1-1.4c0.4-0.4,0.9-0.5,1.4-0.5c0.2,0,0.4,0,0.5,0.1c0.2,0,0.3,0.1,0.4,0.2
			l-0.1,1.3c0,0.2-0.1,0.2-0.3,0.2c-0.1,0-0.2,0-0.4,0s-0.3,0-0.5,0c-0.3,0-0.5,0-0.7,0.1c-0.2,0.1-0.4,0.2-0.6,0.3
			c-0.2,0.2-0.3,0.3-0.4,0.6c-0.1,0.2-0.2,0.5-0.4,0.8v5.5h-1.7v-8.9h1c0.2,0,0.3,0,0.4,0.1c0.1,0.1,0.1,0.2,0.1,0.4L-174.2,33.1z"
			/>
		<path class="st1" d="M-162.4,39c-0.2,0.2-0.5,0.5-0.7,0.6c-0.3,0.2-0.6,0.3-0.9,0.4c-0.3,0.1-0.6,0.2-1,0.2
			c-0.3,0.1-0.7,0.1-1,0.1c-0.6,0-1.2-0.1-1.7-0.3s-1-0.5-1.4-0.9c-0.4-0.4-0.7-0.9-0.9-1.5s-0.3-1.3-0.3-2c0-0.6,0.1-1.2,0.3-1.7
			s0.5-1,0.8-1.4c0.4-0.4,0.8-0.7,1.3-0.9s1.1-0.3,1.7-0.3c0.5,0,1,0.1,1.5,0.3s0.8,0.4,1.2,0.8c0.4,0.4,0.6,0.8,0.8,1.2
			c0.2,0.5,0.3,1.1,0.3,1.7c0,0.3,0,0.4-0.1,0.5c-0.1,0.1-0.2,0.1-0.3,0.1h-5.8c0,0.5,0.1,1,0.2,1.4c0.1,0.4,0.3,0.7,0.6,1
			c0.3,0.3,0.5,0.5,0.8,0.6s0.7,0.2,1.1,0.2c0.4,0,0.7,0,1-0.1s0.5-0.2,0.7-0.3s0.4-0.2,0.5-0.3s0.3-0.1,0.4-0.1
			c0.1,0,0.2,0.1,0.3,0.2L-162.4,39z M-163.8,34.9c0-0.3,0-0.6-0.1-0.9c-0.1-0.3-0.2-0.5-0.4-0.7s-0.4-0.4-0.7-0.5s-0.6-0.2-0.9-0.2
			c-0.7,0-1.3,0.2-1.7,0.6c-0.4,0.4-0.7,1-0.8,1.7C-168.4,34.9-163.8,34.9-163.8,34.9z"/>
		<path class="st1" d="M-148.2,31.4l-2.8,8.9h-1.4c-0.2,0-0.3-0.1-0.3-0.3l-1.9-5.8c0-0.1-0.1-0.3-0.1-0.4c0-0.1-0.1-0.3-0.1-0.4
			c-0.1,0.3-0.1,0.6-0.2,0.9l-1.9,5.8c-0.1,0.2-0.2,0.3-0.4,0.3h-1.3l-2.9-8.9h1.3c0.1,0,0.2,0,0.3,0.1c0.1,0.1,0.1,0.1,0.2,0.2
			l1.6,5.4c0.1,0.2,0.1,0.4,0.1,0.6c0,0.2,0.1,0.4,0.1,0.6c0.1-0.2,0.1-0.4,0.2-0.6c0.1-0.2,0.1-0.4,0.2-0.6l1.8-5.5
			c0-0.1,0.1-0.2,0.2-0.2c0.1-0.1,0.2-0.1,0.3-0.1h0.7c0.1,0,0.2,0,0.3,0.1c0.1,0.1,0.1,0.1,0.2,0.2l1.7,5.5
			c0.1,0.2,0.1,0.4,0.2,0.6c0.1,0.2,0.1,0.4,0.2,0.6c0-0.2,0.1-0.4,0.1-0.6c0-0.2,0.1-0.4,0.2-0.7l1.6-5.4c0-0.1,0.1-0.2,0.2-0.2
			c0.1-0.1,0.2-0.1,0.3-0.1C-149.5,31.4-148.2,31.4-148.2,31.4z"/>
		<path class="st1" d="M-139.5,39c-0.2,0.2-0.5,0.5-0.7,0.6c-0.3,0.2-0.6,0.3-0.9,0.4c-0.3,0.1-0.6,0.2-1,0.2
			c-0.3,0.1-0.7,0.1-1,0.1c-0.6,0-1.2-0.1-1.7-0.3s-1-0.5-1.4-0.9c-0.4-0.4-0.7-0.9-0.9-1.5s-0.3-1.3-0.3-2c0-0.6,0.1-1.2,0.3-1.7
			s0.5-1,0.8-1.4c0.4-0.4,0.8-0.7,1.3-0.9s1.1-0.3,1.7-0.3c0.5,0,1,0.1,1.5,0.3s0.8,0.4,1.2,0.8c0.4,0.4,0.6,0.8,0.8,1.2
			c0.2,0.5,0.3,1.1,0.3,1.7c0,0.3,0,0.4-0.1,0.5c-0.1,0.1-0.2,0.1-0.3,0.1h-5.8c0,0.5,0.1,1,0.2,1.4c0.1,0.4,0.3,0.7,0.6,1
			c0.3,0.3,0.5,0.5,0.8,0.6s0.7,0.2,1.1,0.2c0.4,0,0.7,0,1-0.1c0.3-0.1,0.5-0.2,0.7-0.3s0.4-0.2,0.5-0.3c0.1-0.1,0.3-0.1,0.4-0.1
			c0.1,0,0.2,0.1,0.3,0.2L-139.5,39z M-140.9,34.9c0-0.3,0-0.6-0.1-0.9c-0.1-0.3-0.2-0.5-0.4-0.7c-0.2-0.2-0.4-0.4-0.7-0.5
			c-0.3-0.1-0.6-0.2-0.9-0.2c-0.7,0-1.3,0.2-1.7,0.6c-0.4,0.4-0.7,1-0.8,1.7C-145.5,34.9-140.9,34.9-140.9,34.9z"/>
		<path class="st1" d="M-135.7,27.4v12.9h-1.7V27.4H-135.7z"/>
		<path class="st1" d="M-131.5,27.4v12.9h-1.7V27.4H-131.5z"/>
		<path class="st1" d="M-116.2,27.8v0.8c0,0.2,0,0.4-0.1,0.5c0,0.1-0.1,0.3-0.1,0.4l-5.1,10.3c-0.1,0.2-0.2,0.3-0.3,0.4
			s-0.3,0.2-0.6,0.2h-1.3l5.1-10.1c0.1-0.2,0.2-0.3,0.3-0.4c0.1-0.1,0.2-0.3,0.3-0.4h-6.4c-0.1,0-0.2,0-0.3-0.1
			c-0.1-0.1-0.1-0.2-0.1-0.3v-1.2h8.6V27.8z"/>
		<path class="st1" d="M-105.8,35.7v1c0,0.1,0,0.2-0.1,0.3s-0.2,0.1-0.3,0.1h-1.5v3.2h-1.5v-3.2h-5.5c-0.1,0-0.2,0-0.3-0.1
			c-0.1-0.1-0.1-0.2-0.2-0.3l-0.2-0.9l6-8h1.7v8h1.9V35.7z M-109.1,35.7v-4.9c0-0.2,0-0.3,0-0.5s0-0.4,0.1-0.6l-4.4,6H-109.1z"/>
		<path class="st1" d="M-95.8,27.8v0.8c0,0.2,0,0.4-0.1,0.5c0,0.1-0.1,0.3-0.1,0.4l-5.1,10.3c-0.1,0.2-0.2,0.3-0.3,0.4
			s-0.3,0.2-0.6,0.2h-1.2l5.1-10.1c0.1-0.2,0.2-0.3,0.3-0.4c0.1-0.1,0.2-0.3,0.3-0.4h-6.4c-0.1,0-0.2,0-0.3-0.1
			c-0.1-0.1-0.1-0.2-0.1-0.3v-1.2h8.5V27.8z"/>
		<path class="st1" d="M-89.5,34.3h4.4v1.4h-4.4V34.3z"/>
		<path class="st1" d="M-69.9,35.7v1c0,0.1,0,0.2-0.1,0.3s-0.2,0.1-0.3,0.1h-1.4v3.2h-1.5v-3.2h-5.5c-0.1,0-0.2,0-0.3-0.1
			c-0.1-0.1-0.1-0.2-0.2-0.3l-0.2-0.9l6-8h1.6v8h1.9V35.7z M-73.2,35.7v-4.9c0-0.2,0-0.3,0-0.5s0-0.4,0.1-0.6l-4.4,6H-73.2z"/>
		<path class="st1" d="M-59.7,34c0,1.1-0.1,2-0.4,2.8c-0.2,0.8-0.6,1.5-1,2s-0.9,0.9-1.4,1.2c-0.6,0.3-1.2,0.4-1.8,0.4
			c-0.6,0-1.2-0.1-1.8-0.4c-0.6-0.3-1-0.6-1.4-1.2c-0.4-0.5-0.7-1.2-1-2c-0.2-0.8-0.3-1.7-0.3-2.8s0.1-2,0.3-2.8
			c0.2-0.8,0.6-1.5,1-2s0.9-0.9,1.4-1.2c0.6-0.3,1.2-0.4,1.8-0.4c0.6,0,1.2,0.1,1.8,0.4c0.6,0.3,1,0.6,1.4,1.2c0.4,0.5,0.7,1.2,1,2
			C-59.9,32-59.7,32.9-59.7,34z M-61.5,34c0-0.9-0.1-1.7-0.2-2.4c-0.2-0.6-0.4-1.1-0.6-1.5s-0.6-0.7-0.9-0.8
			c-0.3-0.2-0.7-0.2-1.1-0.2c-0.4,0-0.7,0.1-1.1,0.2c-0.3,0.2-0.6,0.4-0.9,0.8s-0.5,0.9-0.6,1.5c-0.2,0.6-0.2,1.4-0.2,2.4
			c0,0.9,0.1,1.7,0.2,2.4s0.4,1.1,0.6,1.5c0.3,0.4,0.6,0.7,0.9,0.8c0.3,0.2,0.7,0.2,1.1,0.2c0.4,0,0.7-0.1,1.1-0.2
			c0.3-0.2,0.6-0.4,0.9-0.8c0.3-0.4,0.5-0.9,0.6-1.5C-61.6,35.8-61.5,35-61.5,34z"/>
	</g>
	<text transform="matrix(1 0 0 1 -58.935 40.2439)" class="st1 st2 st3"> </text>
	<g class="st0">
		<path class="st1" d="M-49.1,34c0,1.1-0.1,2-0.4,2.8c-0.2,0.8-0.6,1.5-1,2s-0.9,0.9-1.4,1.2c-0.6,0.3-1.2,0.4-1.8,0.4
			s-1.2-0.1-1.8-0.4c-0.6-0.3-1-0.6-1.4-1.2c-0.4-0.5-0.7-1.2-1-2c-0.2-0.8-0.3-1.7-0.3-2.8s0.1-2,0.3-2.8s0.6-1.5,1-2
			s0.9-0.9,1.4-1.2c0.6-0.3,1.2-0.4,1.8-0.4s1.2,0.1,1.8,0.4c0.6,0.3,1,0.6,1.4,1.2c0.4,0.5,0.7,1.2,1,2C-49.2,32-49.1,32.9-49.1,34
			z M-50.9,34c0-0.9-0.1-1.7-0.2-2.4c-0.2-0.6-0.4-1.1-0.6-1.5c-0.3-0.4-0.6-0.7-0.9-0.8c-0.3-0.2-0.7-0.2-1.1-0.2s-0.7,0.1-1.1,0.2
			c-0.3,0.2-0.6,0.4-0.9,0.8c-0.3,0.4-0.5,0.9-0.6,1.5c-0.2,0.6-0.2,1.4-0.2,2.4c0,0.9,0.1,1.7,0.2,2.4c0.2,0.6,0.4,1.1,0.6,1.5
			c0.3,0.4,0.6,0.7,0.9,0.8c0.3,0.2,0.7,0.2,1.1,0.2s0.7-0.1,1.1-0.2c0.3-0.2,0.6-0.4,0.9-0.8c0.3-0.4,0.5-0.9,0.6-1.5
			C-51,35.8-50.9,35-50.9,34z"/>
	</g>
	<g id="Group-2">
		<g class="st0">
			<path class="st1" d="M-185.8,10.7v1.2h-6.3v-1.2h2.4V3.1c0-0.2,0-0.5,0-0.7l-2,1.7c0.1,0,0,0-0.1,0c-0.1,0-0.1,0-0.2,0
				s-0.1,0-0.2,0c-0.1,0-0.1-0.1-0.1-0.1l-0.5-0.7l3.5-3h1.3v10.4C-188,10.7-185.8,10.7-185.8,10.7z"/>
			<path class="st1" d="M-179.1,7.3c0.2-0.3,0.4-0.5,0.6-0.8c-0.3,0.2-0.6,0.4-1,0.5s-0.7,0.2-1.1,0.2c-0.4,0-0.8-0.1-1.2-0.2
				c-0.4-0.1-0.7-0.4-1-0.6c-0.3-0.3-0.5-0.6-0.7-1s-0.3-0.9-0.3-1.4s0.1-1,0.3-1.4s0.5-0.8,0.8-1.2s0.7-0.6,1.2-0.8s1-0.3,1.6-0.3
				c0.6,0,1.1,0.1,1.5,0.3c0.5,0.2,0.8,0.4,1.2,0.8c0.3,0.3,0.6,0.7,0.7,1.2c0.2,0.5,0.3,1,0.3,1.5c0,0.3,0,0.7-0.1,1
				c-0.1,0.3-0.1,0.6-0.3,0.9c-0.1,0.3-0.3,0.6-0.4,0.9c-0.1,0.3-0.3,0.6-0.6,0.9l-2.8,4c-0.1,0.1-0.2,0.2-0.3,0.3s-0.3,0.1-0.5,0.1
				h-1.4L-179.1,7.3z M-182.2,3.7c0,0.7,0.2,1.3,0.6,1.6c0.4,0.4,0.9,0.6,1.6,0.6c0.4,0,0.7-0.1,1-0.2c0.3-0.1,0.5-0.3,0.7-0.5
				c0.2-0.2,0.3-0.4,0.4-0.7c0.1-0.3,0.2-0.5,0.2-0.8s-0.1-0.7-0.2-0.9c-0.1-0.3-0.3-0.5-0.5-0.7c-0.2-0.2-0.4-0.3-0.7-0.5
				c-0.3-0.2-0.6-0.1-0.9-0.1s-0.6,0.1-0.9,0.2c-0.3,0.1-0.5,0.3-0.7,0.5c-0.2,0.2-0.4,0.4-0.5,0.7C-182.2,3.1-182.2,3.4-182.2,3.7z
				"/>
			<path class="st1" d="M-169.7,7.3c0.2-0.3,0.4-0.5,0.6-0.8c-0.3,0.2-0.6,0.4-1,0.5c-0.4,0.1-0.7,0.2-1.1,0.2
				c-0.4,0-0.8-0.1-1.2-0.2c-0.4-0.1-0.7-0.4-1-0.6c-0.3-0.3-0.5-0.6-0.7-1c-0.2-0.4-0.3-0.9-0.3-1.4s0.1-1,0.3-1.4
				c0.2-0.4,0.5-0.8,0.8-1.2s0.7-0.6,1.2-0.8s1-0.3,1.6-0.3s1.1,0.1,1.5,0.3c0.5,0.2,0.8,0.4,1.2,0.8c0.3,0.3,0.6,0.7,0.7,1.2
				c0.2,0.5,0.3,1,0.3,1.5c0,0.3,0,0.7-0.1,1c-0.1,0.3-0.1,0.6-0.3,0.9c-0.1,0.3-0.3,0.6-0.4,0.9c-0.1,0.3-0.3,0.6-0.6,0.9l-2.8,4
				c-0.1,0.1-0.2,0.2-0.3,0.3c-0.1,0.1-0.3,0.1-0.5,0.1h-1.4L-169.7,7.3z M-172.8,3.7c0,0.7,0.2,1.3,0.6,1.6
				c0.4,0.4,0.9,0.6,1.6,0.6c0.4,0,0.7-0.1,1-0.2c0.3-0.1,0.5-0.3,0.7-0.5c0.2-0.2,0.3-0.4,0.4-0.7s0.2-0.5,0.2-0.8
				s-0.1-0.7-0.2-0.9c-0.1-0.3-0.3-0.5-0.5-0.7s-0.4-0.3-0.7-0.5s-0.6-0.2-0.9-0.2c-0.3,0-0.6,0.1-0.9,0.2s-0.5,0.3-0.7,0.5
				s-0.4,0.4-0.5,0.7C-172.8,3.1-172.8,3.4-172.8,3.7z"/>
		</g>
		<text transform="matrix(1 0 0 1 -165.7621 11.8144)" class="st1 st2 st4"> </text>
		<g class="st0">
			<path class="st1" d="M-157.8,10.4c0.2,0,0.3,0,0.4,0.1c0.1,0.1,0.1,0.2,0.1,0.4v0.9h-7.8v-0.5c0-0.1,0-0.2,0.1-0.3
				c0-0.1,0.1-0.2,0.2-0.3l3.7-3.7c0.3-0.3,0.6-0.6,0.8-0.9c0.2-0.3,0.5-0.6,0.6-0.8c0.1-0.2,0.3-0.6,0.4-0.9
				c0.1-0.3,0.1-0.6,0.1-0.9c0-0.3-0.1-0.6-0.2-0.8c-0.1-0.2-0.2-0.4-0.4-0.6s-0.4-0.3-0.6-0.4c-0.2-0.1-0.5-0.1-0.8-0.1
				s-0.5,0-0.8,0.1c-0.2,0.1-0.4,0.2-0.6,0.3c-0.1,0.1-0.2,0.3-0.3,0.5c-0.1,0.2-0.2,0.4-0.3,0.6c-0.1,0.2-0.2,0.3-0.3,0.4
				c-0.1,0.1-0.3,0.1-0.5,0l-0.8-0.1c0.1-0.5,0.2-1,0.4-1.4s0.5-0.7,0.8-1c0.3-0.3,0.7-0.5,1.1-0.6s0.9-0.2,1.4-0.2s1,0.1,1.4,0.2
				c0.4,0.1,0.8,0.4,1.1,0.6c0.3,0.2,0.6,0.6,0.7,1c0.2,0.4,0.3,0.9,0.3,1.4c0,0.4-0.1,0.8-0.2,1.2c-0.1,0.4-0.3,0.7-0.5,1
				c-0.2,0.3-0.5,0.7-0.8,1c-0.3,0.3-0.6,0.6-0.9,1l-2.9,3c0.2-0.1,0.5-0.1,0.7-0.1s0.4-0.1,0.6-0.1
				C-161.6,10.4-157.8,10.4-157.8,10.4z"/>
		</g>
		<g class="st0">
			<path class="st1" d="M-78.6,10.4c0.2,0,0.3,0,0.4,0.1s0.1,0.2,0.1,0.4v0.9h-7.8v-0.5c0-0.1,0-0.2,0.1-0.3c0-0.1,0.1-0.2,0.2-0.3
				L-82,7c0.3-0.3,0.6-0.6,0.8-0.9c0.2-0.3,0.5-0.6,0.6-0.8c0.2-0.3,0.3-0.6,0.4-0.9s0.1-0.6,0.1-0.9c0-0.3-0.1-0.6-0.2-0.8
				s-0.2-0.4-0.4-0.6s-0.4-0.3-0.6-0.4s-0.5-0.1-0.8-0.1s-0.5,0-0.8,0.1c-0.2,0.1-0.4,0.2-0.6,0.3c-0.2,0.1-0.3,0.3-0.5,0.5
				c-0.1,0.2-0.2,0.4-0.3,0.6c-0.1,0.2-0.2,0.3-0.3,0.4s-0.3,0.1-0.5,0l-0.8-0.1c0.1-0.5,0.2-1,0.4-1.4s0.5-0.7,0.8-1
				s0.7-0.5,1.1-0.6s0.9-0.2,1.4-0.2s1,0.1,1.4,0.2S-80,0.8-79.7,1c0.3,0.3,0.6,0.6,0.7,1c0.2,0.4,0.3,0.9,0.3,1.4
				c0,0.4-0.1,0.8-0.2,1.2s-0.3,0.7-0.5,1s-0.5,0.7-0.8,1s-0.6,0.6-0.9,1l-2.9,3c0.2-0.1,0.5-0.1,0.7-0.1s0.4-0.1,0.6-0.1H-78.6z"/>
			<path class="st1" d="M-68.2,6.1c0,1-0.1,1.9-0.3,2.6c-0.2,0.7-0.5,1.4-0.9,1.8s-0.8,0.8-1.3,1.1c-0.5,0.2-1.1,0.4-1.7,0.4
				s-1.1-0.1-1.7-0.4c-0.5-0.2-1-0.6-1.3-1.1s-0.7-1.1-0.9-1.8c-0.2-0.7-0.3-1.6-0.3-2.6s0.1-1.9,0.3-2.6c0.2-0.7,0.5-1.4,0.9-1.8
				s0.8-0.8,1.3-1.1c0.5-0.2,1.1-0.4,1.7-0.4s1.1,0.1,1.7,0.4c0.5,0.2,1,0.6,1.3,1.1s0.7,1.1,0.9,1.8S-68.2,5.1-68.2,6.1z
				 M-69.9,6.1c0-0.9-0.1-1.6-0.2-2.2c-0.1-0.6-0.3-1.1-0.6-1.4s-0.5-0.6-0.8-0.8c-0.3-0.2-0.6-0.2-1-0.2s-0.7,0.1-1,0.2
				c-0.3,0.2-0.6,0.4-0.8,0.8c-0.2,0.4-0.4,0.8-0.6,1.4c-0.1,0.6-0.2,1.3-0.2,2.2s0.1,1.6,0.2,2.2c0.1,0.6,0.3,1.1,0.6,1.4
				c0.2,0.4,0.5,0.6,0.8,0.8s0.6,0.2,1,0.2s0.7-0.1,1-0.2c0.3-0.1,0.6-0.4,0.8-0.8c0.2-0.4,0.4-0.8,0.6-1.4S-69.9,7-69.9,6.1z"/>
			<path class="st1" d="M-59.5,10.7v1.2h-6.2v-1.2h2.4V3.1c0-0.2,0-0.5,0-0.7l-2,1.7c0,0,0,0-0.1,0c-0.1,0-0.1,0-0.2,0
				c-0.1,0-0.1,0-0.2-0.1c-0.1,0-0.1-0.1-0.1-0.1l-0.5-0.7l3.5-3h1.3v10.4h2.1V10.7z"/>
		</g>
		<text transform="matrix(1 0 0 1 -58.236 11.8144)" class="st1 st2 st4"> </text>
		<g class="st0">
			<path class="st1" d="M-49.5,0.3V1c0,0.2,0,0.4-0.1,0.5s-0.1,0.2-0.1,0.3l-4.7,9.5c-0.1,0.2-0.2,0.3-0.3,0.4s-0.3,0.2-0.5,0.2
				h-1.1l4.8-9.3c0.1-0.2,0.2-0.3,0.2-0.4c0.1-0.1,0.2-0.2,0.3-0.3h-5.9c-0.1,0-0.2,0-0.3-0.1s-0.1-0.2-0.1-0.3V0.3H-49.5z"/>
		</g>
		<g id="Line">
			<rect x="-150.6" y="6.3" class="st1" width="59" height="1"/>
		</g>
	</g>
</g>
</svg>
