<?xml version="1.0" encoding="utf-8"?>
<!-- Generator: Adobe Illustrator 20.0.0, SVG Export Plug-In . SVG Version: 6.00 Build 0)  -->
<svg version="1.1" id="圖層_1" xmlns="http://www.w3.org/2000/svg" xmlns:xlink="http://www.w3.org/1999/xlink" x="0px" y="0px"
	 viewBox="0 0 561.3 49" style="enable-background:new 0 0 561.3 49;" xml:space="preserve">
<style type="text/css">
	.st0{fill:#FFFFFF;}
	.st1{enable-background:new    ;}
</style>
<g>
	<g id="Group-8" transform="translate(0.000000, 17.000000)">
		<path id="Fill-8" class="st0" d="M37.1-14.5c7.4,0.8,9.8,3.8,9.8,5.9c0,1.4-0.9,2.3-2,2.3c-0.5,0-1-0.2-1.6-0.6
			c-0.9-2.6-3.8-5.6-6.4-7.2L37.1-14.5z M48.8,0.9c-0.4,0.7-1,1-2.5,1H33.1c0.5,4.7,1.4,9.1,2.8,12.8c1.9-3.2,3.4-6.7,4.4-10l6,2.1
			c-0.3,0.6-0.8,0.9-2.1,0.8c-1.6,3.7-3.7,7.5-6.6,11c1.5,2.7,3.3,4.8,5.6,6.5c0.4,0.3,0.6,0.5,0.8,0.5c0.8,0,2.7-5.2,3.3-7l0.5,0.1
			l-0.9,8.2c1.1,1.6,1.6,2.6,1.6,3.3c0,0.8-0.9,1.6-2.2,1.6c-2.9,0-8.3-4.1-11.7-9.9c-4,3.9-9.1,7.2-15.5,9.4l-0.4-0.8
			c5.9-2.9,10.7-7,14.3-11.7c-2.1-4.8-3.4-10.6-4.1-17H15.6v9.6c3.6-0.6,7.4-1.1,11.2-1.7l0.2,0.8c-3,1-6.7,2.2-11.4,3.7v11.5
			c0,3.1-0.8,5.5-6.2,6.1c-0.1-2.9-1.3-3.9-6-4.3v-0.8h6.9c0.9,0,1.1-0.3,1.1-1V15.5c-2.3,0.7-4.8,1.4-7.5,2.1
			c-0.3,0.6-0.8,1-1.3,1.2L0,13.5c2.4-0.3,6.5-0.8,11.4-1.5V1.9H0.6L0.3,0.8h11.1V-9.7C8-9,4.4-8.3,1-7.9L0.8-8.8
			c7.1-1.9,15.9-5.5,20.4-8.2l4.9,4c-0.3,0.3-0.7,0.4-1.2,0.4s-1-0.1-1.7-0.3c-1.5,0.5-3.3,1-5.3,1.6c-0.1,0.7-0.5,1-2.3,1.3V0.7
			h13.2c-0.5-5.4-0.7-11.2-0.7-17.3l6.5,0.8c-0.1,0.7-0.5,0.9-2,1.2c-0.1,5.3,0,10.5,0.5,15.4H41l2.7-3.6L48.8,0.9z"/>
		<path id="Fill-9" class="st0" d="M91.5,2.2h6.4v-6.5h-6.4V2.2z M91.5-5.5h6.4v-6.4h-6.4V-5.5z M99.3-15.5l5,3.7
			c-0.4,0.4-1.2,0.9-2.2,1.1v36.9c0,3-0.8,5.2-6.2,5.7c0-3.3-1.8-4-5.8-4.3v-0.7h6.8c0.7,0,1-0.2,1-0.8V3.4h-6.4V5
			c0,0.1-0.5,1.3-3.6,1.3v-21l3.8,1.7h5.7L99.3-15.5z M74.7,2.2h6.1v-6.5h-6.1V2.2z M74.7-5.5h6.1v-6.4h-6.1V-5.5z M80.3-13l1.6-2.1
			l4.5,3.2c-0.3,0.4-1.1,0.8-2,1V5.5c0,0.2-1.1,1.2-3.6,1.2V3.4h-6.1v26.7c0,0.1-0.3,1.7-4.1,1.7V-15l4.3,2H80.3z M60.9,3.6
			c-1.5,2.7-3.1,5.1-4.8,7l-0.7-0.4c3.2-6.2,6.6-17,8.5-26.8l6.2,1.6c-0.2,0.7-0.6,1-2,1c-1.1,3.7-2.4,7.5-3.9,11l2.3,0.9
			c-0.2,0.5-0.6,0.8-1.6,0.9v31.8c-0.1,0.3-1.7,1.2-3.2,1.2H61L60.9,3.6L60.9,3.6z"/>
		<path id="Fill-10" class="st0" d="M112.1,6.2h38.2l3.6-4.6l6.5,4.7c-0.5,1-1.3,1.3-2.9,1.3h-45.1L112.1,6.2z"/>
		<path id="Fill-11" class="st0" d="M208.6-11.6h-15.7l-0.4-1.2H208l1.8-2.3l5.1,3.6c-0.4,0.4-1.2,0.9-2.3,1.1V4.5
			c0,0.1-1.3,1.1-4,1.1V2.5H198v14.3c0,1.5,0.1,1.5,2,1.5h9.8c1,0,1.6-0.1,2-0.8c0.5-0.7,1.2-2.8,2-6.4h0.5l-0.1,6.7
			c1.8,0.6,2,0.8,2,1.4c0,1.6-1.5,2.5-6.3,2.5h-10.2c-4.8,0-5.8-0.9-5.8-5V-0.6l4.6,1.9h10L208.6-11.6L208.6-11.6z M182,13.4v11.4
			c3.9,1.4,8.9,1.7,15.5,1.7c4.4,0,14.6,0,19.3-0.1v0.7c-1.7,0.3-2.6,1.7-2.7,3.3h-16.8c-12.7,0-19.6-2-24.1-11.4
			c-0.9,4.8-2.5,9.5-5.4,12.7L167,31c2.9-5.5,3.2-16.3,3.3-23.5l5.7,0.3c-0.1,0.7-0.5,1.1-1.8,1.2c-0.2,2.6-0.3,5.3-0.7,8.1
			c1.3,2.4,2.8,4.2,4.5,5.5v-20h-10.1l-0.3-1.1h10.3v-9h-8.5l-0.3-1.2h8.8v-7.9l6.4,0.5c-0.1,0.8-0.6,1.1-2.2,1.4v6h2.8l2.4-3.1
			l4.5,3.3c-0.4,0.7-1,1-2.5,1H182v9h3.4l2.5-3.3l4.6,3.4c-0.4,0.7-1,1-2.4,1h-6.7c-0.3,0.2-0.7,0.3-1.4,0.4v9.2h3l2.4-3.3l4.4,3.4
			c-0.4,0.7-1.1,1-2.5,1H182V13.4z"/>
		<path id="Fill-12" class="st0" d="M247.5,27.3h14.8V16.8h-14.8L247.5,27.3L247.5,27.3z M259.9,6l4.1,3c-0.4,0.7-1,1-2.3,1h-14.8
			l-0.3-1.1h11.2L259.9,6z M261.8,15.6l1.8-2.3l5.1,3.5c-0.4,0.4-1.1,0.8-2.2,1v12.4c0,0.1-1.2,1.3-4.1,1.3v-3h-14.8v2
			c0,0.1-0.6,1.5-4.1,1.5V13.7l4.3,1.9H261.8z M239.9-8.8l-0.3-1.1h7v-6.4l6,0.5c-0.1,0.7-0.5,1-2.1,1.2v4.7h9.1v-6.4l6,0.5
			c-0.1,0.7-0.6,1-2,1.2v4.7h2.4l2.3-3.1l4.3,3.3c-0.4,0.7-1,1-2.5,1h-6.6v4.4c0,0.1-0.7,1.2-4,1.2v-5.7h-9.1v4.4
			c0,0.2-0.9,1.5-3.9,1.5v-5.9H239.9z M237.1,12.4c6.7-4.3,12.6-12,14.9-18.4l6.3,1.6c-0.2,0.6-0.6,0.9-2,1c3.6,4.9,9.9,9,16.8,10.9
			L273,8.2c-1.6,0.6-2.5,2.3-2.8,4c-6.5-3.3-11.7-8.5-14.6-15c-3.2,5.9-10.1,12.4-18.1,15.8L237.1,12.4z M234.8,7l7.7-2.1l0.2,0.7
			c-2.1,1.1-4.7,2.6-7.9,4.2v16.1c0,3.1-0.7,5.4-5.7,5.9c0-2.8-0.9-3.8-4.9-4.1v-0.8h5.5c0.7,0,0.9-0.3,0.9-0.9V11.9
			c-1.3,0.6-2.6,1.2-4,1.9c-0.2,0.7-0.7,1.1-1.2,1.4l-2.2-5.3c1.6-0.3,4.2-0.9,7.5-1.8V-4h-6.9l-0.3-1.2h7.2v-11.4l6.4,0.5
			c-0.1,0.8-0.4,1.1-2.3,1.4v9.5h1.5l2.2-3.2c2.6,2.2,3.4,2.8,4.2,3.3c-0.4,0.7-1,1-2.5,1h-5.5V7H234.8z"/>
		<path id="Fill-13" class="st0" d="M306.7,4.3c7.4,2.8,9.7,6.6,9.7,9.1c0,1.7-1,2.9-2.2,2.9c-0.6,0-1.3-0.3-1.9-0.9
			c-0.5-3.5-3.3-8-6-10.6L306.7,4.3z M323.5-9.4l5,3.9c-0.4,0.5-1.1,0.8-2.2,0.9c-0.4,20-1.1,31.6-3.8,34.2
			c-1.7,1.6-3.2,2.3-6.6,2.3c0-2.3-0.4-3.5-6.4-4.4l0.1-0.8c2.4,0.1,6,0.2,7.5,0.2c1,0,1.4-0.1,2-0.6c1.9-1.9,2.6-13.7,3-31.9h-12.8
			c-2.2,5.3-5,10-8.1,13.3l-0.8-0.5c3.1-5.4,6-14.9,7.5-23.9l6.3,1.6c-0.2,0.7-0.6,1-1.9,1c-0.7,2.5-1.6,4.9-2.5,7.3h11.6L323.5-9.4
			z M285.7,20.5h9.8V7.4h-9.8V20.5z M285.7,6.3h9.8v-12h-9.8V6.3z M296.9-9.3l5,3.6c-0.4,0.4-1.2,0.8-2.2,1.1v29.1
			c0,0.1-1.1,1.4-4,1.4v-4.1h-9.8v4.4c0,0.1-0.4,1.6-3.9,1.6V-8.8l4.2,1.9h1.3c0.6-2.6,1.5-6.5,2-9.4l6.5,1.2
			c-0.2,0.8-0.7,1.1-2.1,1.1c-1.1,2-2.9,4.9-4.3,7h5.6L296.9-9.3z"/>
	</g>
	<g class="st1">
		<path class="st0" d="M370.7,8.6c-4.5,5.7-7.8,11.2-9.8,16.4c-2.2,5.6-3.4,11.8-3.6,18.7h-5.2c0.2-4.3,0.8-8,1.6-11
			c1-3.3,2.6-6.7,4.9-10.1c2.2-3.3,3.8-5.5,4.7-6.7l3.8-4.7h-15.3c-1.7,0-2.8,0.3-3.5,1s-1,1.8-1,3.5h-1.4V5.5h1.4v0.2
			c0,0.7,0.5,1.1,1.6,1.1h21.8V8.6z"/>
		<path class="st0" d="M398.4,33.2h-5.9v5.5c0,2.4,1.2,3.7,3.6,3.7h0.8v1.4h-14.5v-1.4h1.2c2.7,0,4.1-1.2,4.1-3.7v-5.5h-16.6v-1.3
			l11.3-14.3c3.7-4.7,6.5-8.6,8.6-11.8h1.4v24.4h5.9v3H398.4z M387.8,30.2V15c-2.6,2.5-5,5.1-7.2,7.9l-5.8,7.4h13V30.2z"/>
		<path class="st0" d="M428.5,8.6c-4.5,5.7-7.8,11.2-9.8,16.4c-2.2,5.6-3.4,11.8-3.6,18.7h-5.2c0.2-4.3,0.8-8,1.6-11
			c1-3.3,2.6-6.7,4.9-10.1c2.2-3.3,3.8-5.5,4.7-6.7l3.8-4.7h-15.3c-1.7,0-2.8,0.3-3.5,1c-0.6,0.6-1,1.8-1,3.5h-1.4V5.5h1.4v0.2
			c0,0.7,0.5,1.1,1.6,1.1h21.8V8.6z"/>
	</g>
	<g class="st1">
		<path class="st0" d="M498.7,33.2h-5.9v5.5c0,2.4,1.2,3.7,3.6,3.7h0.8v1.4h-14.5v-1.4h1.2c2.7,0,4.1-1.2,4.1-3.7v-5.5h-16.6v-1.3
			l11.3-14.3c3.7-4.7,6.5-8.6,8.6-11.8h1.4v24.4h5.9v3H498.7z M488.1,30.2V15c-2.6,2.5-5,5.1-7.2,7.9l-5.8,7.4h13V30.2z"/>
		<path class="st0" d="M530.7,22.2c0,5.1-1.4,9.9-4.1,14.4c-3.2,5.3-7.1,7.9-11.9,7.9c-2.3,0-4.4-0.7-6.4-2.2
			c-1.8-1.4-3.2-3.2-4.2-5.4c-1.1-2.4-1.6-5.2-1.6-8.6c0-5,1.3-9.7,3.9-14.4c3.1-5.4,6.9-8.2,11.6-8.2c4.1,0,7.3,1.8,9.6,5.4
			C529.7,14.2,530.7,17.9,530.7,22.2z M526.5,26.6c0-7.2-1.9-12.3-5.7-15.4c-1.9-1.5-3.6-2.2-5.3-2.2c-3.3,0-5.7,1.8-7.2,5.4
			c-1.1,2.6-1.7,5.8-1.7,9.6c0,3.9,0.9,7.6,2.7,11c2.2,4.2,5,6.3,8.6,6.3c3.2,0,5.5-1.7,7.1-5.2C525.9,33.4,526.5,30.3,526.5,26.6z"
			/>
		<path class="st0" d="M561.3,22.2c0,5.1-1.4,9.9-4.1,14.4c-3.2,5.3-7.1,7.9-11.9,7.9c-2.3,0-4.4-0.7-6.4-2.2
			c-1.8-1.4-3.2-3.2-4.2-5.4c-1.1-2.4-1.6-5.2-1.6-8.6c0-5,1.3-9.7,3.9-14.4c3.1-5.4,6.9-8.2,11.6-8.2c4.1,0,7.3,1.8,9.6,5.4
			C560.2,14.2,561.3,17.9,561.3,22.2z M557,26.6c0-7.2-1.9-12.3-5.7-15.4C549.4,9.7,547.7,9,546,9c-3.3,0-5.7,1.8-7.2,5.4
			c-1.1,2.6-1.7,5.8-1.7,9.6c0,3.9,0.9,7.6,2.7,11c2.2,4.2,5,6.3,8.6,6.3c3.2,0,5.5-1.7,7.1-5.2C556.5,33.4,557,30.3,557,26.6z"/>
	</g>
	<g id="Line_1_">
		<rect x="440" y="24.9" class="st0" width="18.6" height="3"/>
	</g>
</g>
</svg>
