<?xml version="1.0" encoding="utf-8"?>
<!-- Generator: Adobe Illustrator 20.0.0, SVG Export Plug-In . SVG Version: 6.00 Build 0)  -->
<svg version="1.1" id="圖層_1" xmlns="http://www.w3.org/2000/svg" xmlns:xlink="http://www.w3.org/1999/xlink" x="0px" y="0px"
	 viewBox="0 0 24.9 23.2" style="enable-background:new 0 0 24.9 23.2;" xml:space="preserve">
<style type="text/css">
	.st0{fill:#FFFFFF;}
</style>
<path id="Fill-6_1_" class="st0" d="M9.1,15.1L9,19.7l-1.6,1.2l-2.2-6.1l-5.2-4l1.6-1.2l4.5,1.3l4.6-3.4L0.8,0.7l2.7-0.6l3.1,1.1
	l0.8-0.6C8.1,0.2,9,0.3,9.5,0.9c0.3,0.4,0.3,0.9,0.2,1.3l5.7,2l3.8-2.8c1.1-0.8,4.8-2.1,5.6-1c0.8,1.1-1.5,4.3-2.6,5.1l-3.8,2.8
	l0.2,6c0.4,0,0.9,0.2,1.2,0.6c0.5,0.6,0.3,1.5-0.3,1.9l-0.8,0.6l0.1,3.3l-1.4,2.4l-3.6-11.5L9.1,15.1z"/>
</svg>
