<svg id="圖層_1" data-name="圖層 1" xmlns="http://www.w3.org/2000/svg" viewBox="0 0 408.04 53.58"><defs><style>.cls-1{fill:#fff;}</style></defs><title>tt_工作區域 10</title><path class="cls-1" d="M0,.48H21.8q6.42,0,9.83,2.82A8.84,8.84,0,0,1,35,10.4a8.43,8.43,0,0,1-2.38,6,16.18,16.18,0,0,1-7.15,3.93q5.91,1.25,8.86,3.92a8.71,8.71,0,0,1,3,6.75,9.39,9.39,0,0,1-1.68,5.52A12.68,12.68,0,0,1,30,40.63a22.48,22.48,0,0,1-8.89,1.67H0V40.18H3.45a4,4,0,0,0,2.28-.51,1.43,1.43,0,0,0,.72-1.16V5a2.24,2.24,0,0,0-.71-1.79A3.08,3.08,0,0,0,3.68,2.6H0Zm12.5,19.2h7.92a7.89,7.89,0,0,0,5.81-2.15q2.16-2.14,2.16-7a9.07,9.07,0,0,0-1-4.71,6,6,0,0,0-3-2.47,20.64,20.64,0,0,0-6.8-.78q-3.42,0-4.24.49a1.86,1.86,0,0,0-.82,1.74Zm0,2.12V37.92a2.1,2.1,0,0,0,.66,1.7,3.77,3.77,0,0,0,2.39.57h5.06q5,0,7.44-2.22T30.45,31A9.12,9.12,0,0,0,28,24.28a9.32,9.32,0,0,0-6.87-2.47Z"/><path class="cls-1" d="M53.47,15a11.84,11.84,0,0,1,9,3.86A14.23,14.23,0,0,1,66.08,29a15.68,15.68,0,0,1-1.63,7.42,12.16,12.16,0,0,1-4.64,4.85,12.53,12.53,0,0,1-6.49,1.78,11.39,11.39,0,0,1-8.72-3.9A14.39,14.39,0,0,1,41,29.07a14.4,14.4,0,0,1,3.59-10.15A11.55,11.55,0,0,1,53.47,15Zm0,2a6.15,6.15,0,0,0-5.2,2.87q-2,2.87-2,9.06t2,9.22a6.11,6.11,0,0,0,5.22,2.91,6.28,6.28,0,0,0,5.36-2.91q2.05-2.91,2.05-9.53,0-6.13-2-8.88A6.37,6.37,0,0,0,53.47,17Z"/><path class="cls-1" d="M94.78,29.24h-19q.14,6.05,2.26,8.54a7.84,7.84,0,0,0,6.19,2.8q5.54,0,8.91-6.31l1.84.79q-4.13,8-11.93,8a11.83,11.83,0,0,1-8.95-3.85,13.75,13.75,0,0,1-3.63-9.84Q70.49,23,74.07,19a11.39,11.39,0,0,1,8.81-4,11.21,11.21,0,0,1,6.65,2,11.94,11.94,0,0,1,4.21,5.68A19.43,19.43,0,0,1,94.78,29.24Zm-19-2H87.29a1.93,1.93,0,0,0,1.58-.69,3.79,3.79,0,0,0,.57-2.36,7.68,7.68,0,0,0-1.94-5.29,5.93,5.93,0,0,0-4.57-2.18,6.14,6.14,0,0,0-5,2.63Q75.9,22,75.81,27.23Z"/><path class="cls-1" d="M98.38,15.81l10.55-.31V38.29a1.69,1.69,0,0,0,.45,1.33,2.4,2.4,0,0,0,1.64.57h3V42.3H98.94V40.18h2.8a2.42,2.42,0,0,0,1.82-.61,2.47,2.47,0,0,0,.58-1.77V21.12a3,3,0,0,0-.91-2.39,3.93,3.93,0,0,0-2.69-.81H98.38ZM105.73,0A3.07,3.07,0,0,1,108,1a3.1,3.1,0,0,1,1,2.26A3,3,0,0,1,108,5.43a3.14,3.14,0,0,1-4.48,0,3.07,3.07,0,0,1,0-4.45A3,3,0,0,1,105.73,0Z"/><path class="cls-1" d="M117.12,15.81l8.79-.54a43.77,43.77,0,0,1,.79,5.83,12.59,12.59,0,0,1,4.2-4.33,10.47,10.47,0,0,1,5.47-1.44,8.68,8.68,0,0,1,4.41,1,7.27,7.27,0,0,1,2.86,3.27,11.4,11.4,0,0,1,1.07,5V37.52a2.71,2.71,0,0,0,.65,2.05,3.15,3.15,0,0,0,2.18.61h1.87V42.3h-14V40.18h1.33a4.25,4.25,0,0,0,2.6-.59,2.15,2.15,0,0,0,.74-1.78V26.47A10.46,10.46,0,0,0,139,21a5.28,5.28,0,0,0-4.81-2.54A6.65,6.65,0,0,0,128.84,21a10.15,10.15,0,0,0-2.13,6.7v9.81a2.68,2.68,0,0,0,.66,2.05,3.21,3.21,0,0,0,2.19.61h1.84V42.3h-14V40.18h1.84a3.36,3.36,0,0,0,2.11-.57A1.73,1.73,0,0,0,122,38.2V21.09a3.39,3.39,0,0,0-.92-2.57,3.69,3.69,0,0,0-2.64-.88h-1.36Z"/><path class="cls-1" d="M172.8,17.31q2.83-2.85,5.2-2.86a3.24,3.24,0,0,1,2.35.9,3,3,0,0,1,.93,2.21,2.47,2.47,0,0,1-.64,1.74,2,2,0,0,1-1.48.69q-1.61,0-2.18-2-.23-.85-.76-.85a3.05,3.05,0,0,0-2.09,1.27,12.56,12.56,0,0,1,1.67,2.9,7.61,7.61,0,0,1,.45,2.64,8,8,0,0,1-1.19,4.34,10,10,0,0,1-3.94,3.32,11.4,11.4,0,0,1-5.27,1.44h-3.08q-3.28,0-4.35.68a2.32,2.32,0,0,0-1.07,2.06,1.93,1.93,0,0,0,.88,1.7,6.39,6.39,0,0,0,3.31.59l7-.14q5.29,0,7.62,1.77a5.75,5.75,0,0,1,2.33,4.85,7.29,7.29,0,0,1-2.66,5.71q-3.7,3.28-11.06,3.28-6.08,0-9-2.23a5,5,0,0,1-2.32-3.93,4.12,4.12,0,0,1,1.48-3.05,10.18,10.18,0,0,1,5-2.06,9.35,9.35,0,0,1-4.21-2A4.28,4.28,0,0,1,154.25,37a4.71,4.71,0,0,1,1.15-3.15,9,9,0,0,1,4-2.3,9.86,9.86,0,0,1-3.62-3.21,7.76,7.76,0,0,1-1.22-4.31,8.17,8.17,0,0,1,3-6.45,11.63,11.63,0,0,1,7.86-2.6,12.91,12.91,0,0,1,3.82.57A13.5,13.5,0,0,1,172.8,17.31Zm-5.77,25q-5.2,0-7.42,1.44a4.13,4.13,0,0,0-2.22,3.48,3.45,3.45,0,0,0,1.67,3,11.29,11.29,0,0,0,6.28,1.47q4.86,0,7.32-1.61t2.46-3.59a3.51,3.51,0,0,0-.76-2.16,4.72,4.72,0,0,0-2.43-1.53A17.3,17.3,0,0,0,167,42.33Zm-1.67-25.51a5.31,5.31,0,0,0-4.16,1.85,7.56,7.56,0,0,0-1.64,5.19,8.39,8.39,0,0,0,1.64,5.53,5.48,5.48,0,0,0,8.36.06A8.21,8.21,0,0,0,171.19,24a7.76,7.76,0,0,0-1.65-5.23A5.27,5.27,0,0,0,165.36,16.83Z"/><path class="cls-1" d="M204.22,2.38a24.23,24.23,0,0,0,6,.71H227.8v1.3A103.45,103.45,0,0,0,222,15.91a58.72,58.72,0,0,0-2.91,9,59.42,59.42,0,0,0-1.3,10,51.51,51.51,0,0,1-.54,5.84,2.92,2.92,0,0,1-1,1.72,3.19,3.19,0,0,1-2,.61,2.7,2.7,0,0,1-2.21-1,4.72,4.72,0,0,1-.79-3,20.69,20.69,0,0,1,.65-4.59,57.7,57.7,0,0,1,3-8.24q3.08-7.35,5.34-11.57l3.9-7.18H208.74a2.88,2.88,0,0,0-2.53,1.19q-.83,1.19-2,7.1h-2Z"/><path class="cls-1" d="M252.06,3.08h1.84V29.83h6.5v2.4h-6.5v6a1.53,1.53,0,0,0,.62,1.27,3.48,3.48,0,0,0,2.09.65H259V42.3H243.32V40.18h2.91a3.17,3.17,0,0,0,2.16-.62,2.31,2.31,0,0,0,.69-1.81V32.24h-16V29.53Zm-3,7.62L235.43,29.83h13.66Z"/><path class="cls-1" d="M268.63,2.38a24.23,24.23,0,0,0,6,.71h17.59v1.3a103.45,103.45,0,0,0-5.8,11.52,58.72,58.72,0,0,0-2.91,9,59.37,59.37,0,0,0-1.3,10,52,52,0,0,1-.54,5.84,2.93,2.93,0,0,1-1,1.72,3.19,3.19,0,0,1-2,.61,2.7,2.7,0,0,1-2.21-1,4.72,4.72,0,0,1-.79-3,20.72,20.72,0,0,1,.65-4.59,57.69,57.69,0,0,1,3-8.24q3.08-7.35,5.34-11.57l3.9-7.18H273.16a2.89,2.89,0,0,0-2.53,1.19q-.83,1.19-2,7.1h-2Z"/><path class="cls-1" d="M298.3,17.87h11.45v4.3H298.3Z"/><path class="cls-1" d="M335.76,3.08h1.84V29.83h6.5v2.4h-6.5v6a1.53,1.53,0,0,0,.62,1.27,3.48,3.48,0,0,0,2.09.65h2.4V42.3H327V40.18h2.91a3.17,3.17,0,0,0,2.16-.62,2.31,2.31,0,0,0,.69-1.81V32.24h-16V29.53Zm-3,7.62L319.13,29.83h13.66Z"/><path class="cls-1" d="M362.09,2.35a11.6,11.6,0,0,1,9.19,4.3q4.55,5.29,4.55,16,0,10-4,15.2t-9.56,5.22a11.24,11.24,0,0,1-9-4.38q-4.52-5.52-4.52-15.92,0-9.9,4.27-15.75A10.67,10.67,0,0,1,362.09,2.35Zm.17,2A6.46,6.46,0,0,0,356.43,8q-2.09,3.58-2.09,14.83,0,11,2.16,14.68t5.81,3.68A6.22,6.22,0,0,0,368,37.75q2.35-4,2.35-14.76,0-11.08-2.21-14.84T362.26,4.38Z"/><path class="cls-1" d="M394.3,2.35a11.6,11.6,0,0,1,9.19,4.3q4.55,5.29,4.55,16,0,10-4,15.2t-9.56,5.22a11.24,11.24,0,0,1-9-4.38Q381,33.2,381,22.79q0-9.9,4.27-15.75A10.67,10.67,0,0,1,394.3,2.35Zm.17,2A6.46,6.46,0,0,0,388.64,8q-2.09,3.58-2.09,14.83,0,11,2.16,14.68t5.81,3.68a6.22,6.22,0,0,0,5.66-3.39q2.35-4,2.35-14.76,0-11.08-2.21-14.84T394.46,4.38Z"/></svg>