<svg id="圖層_1" data-name="圖層 1" xmlns="http://www.w3.org/2000/svg" viewBox="0 0 261.39 46.52"><defs><style>.cls-1{fill:#fff;}</style></defs><title>tt_工作區域 12</title><path class="cls-1" d="M0,1.12H36.25l.6,15.43H34.77q-1.39-8-3.89-10.36Q28,3.37,22.72,3.38H15.58a2.06,2.06,0,0,0-1.54.5,2.07,2.07,0,0,0-.48,1.49V21.48h3.83a6.51,6.51,0,0,0,5.09-2.11q1.9-2.11,2-6.51H26.7V33H24.53q-.21-5-2-7.14a6.36,6.36,0,0,0-5.09-2.14H13.56v17a2.67,2.67,0,0,0,.72,2.12,3.89,3.89,0,0,0,2.5.62h4.64v2.26H0V43.42H4.58a2.83,2.83,0,0,0,2-.56A2.42,2.42,0,0,0,7.14,41V5.6a2.12,2.12,0,0,0-.62-1.72,3.44,3.44,0,0,0-2.15-.51H0Z"/><path class="cls-1" d="M69.81,42.58l1.08,1.69A6.69,6.69,0,0,1,66,46.52a5.37,5.37,0,0,1-3.45-1.11,9,9,0,0,1-2.46-3.92,18.12,18.12,0,0,1-5,4,12.29,12.29,0,0,1-5.21,1q-4.34,0-6.6-1.87A5.94,5.94,0,0,1,41,39.86q0-4.4,5.17-7.31t13.75-3.87V24.41a5.05,5.05,0,0,0-1.84-3.92,6.78,6.78,0,0,0-4.67-1.63,9,9,0,0,0-4.52,1.08q-1.36.81-1.36,1.6A3,3,0,0,0,48.27,23a3.81,3.81,0,0,1,.87,2.14,3,3,0,0,1-.87,2.21,3.13,3.13,0,0,1-2.29.86,3.39,3.39,0,0,1-2.52-1,3.57,3.57,0,0,1-1-2.62q0-3,3.36-5.45a14.52,14.52,0,0,1,8.81-2.47q5,0,7.68,2.17A6.7,6.7,0,0,1,65,24.1V39.53a5.4,5.4,0,0,0,.66,3,2,2,0,0,0,1.72,1A4.19,4.19,0,0,0,69.81,42.58Zm-9.88-11.9q-7.65,1.06-10.85,3.44a6.05,6.05,0,0,0-2.38,5.12,5.08,5.08,0,0,0,1.24,3.63,4.23,4.23,0,0,0,3.22,1.31,8.29,8.29,0,0,0,6.16-2.7,9.35,9.35,0,0,0,2.61-6.76Z"/><path class="cls-1" d="M73.85,17.45,84,16.93V28.35a25.08,25.08,0,0,1,3.92-8.53,7,7,0,0,1,5.66-2.89,4.89,4.89,0,0,1,3.66,1.4,5.13,5.13,0,0,1,1.37,3.75,4.35,4.35,0,0,1-.92,3,2.93,2.93,0,0,1-2.31,1.05,2.82,2.82,0,0,1-2.18-.9,3.47,3.47,0,0,1-.83-2.44,3.8,3.8,0,0,1,.48-1.87,3.54,3.54,0,0,0,.45-.93q0-.45-.57-.45a4.43,4.43,0,0,0-2.8,1.45,13,13,0,0,0-3.34,5.54,29.79,29.79,0,0,0-1.81,8.77v6.06a1.84,1.84,0,0,0,.72,1.57,4.24,4.24,0,0,0,2.47.54h3.59v2.26H74V43.42h2.8A3.46,3.46,0,0,0,79,42.86a1.65,1.65,0,0,0,.72-1.34v-18a4.33,4.33,0,0,0-.87-3,3.23,3.23,0,0,0-2.5-.95H73.85Z"/><path class="cls-1" d="M128.18,31.76H108q.15,6.45,2.41,9.1a8.36,8.36,0,0,0,6.6,3q5.9,0,9.49-6.72l2,.84q-4.4,8.56-12.72,8.56a12.6,12.6,0,0,1-9.54-4.1,14.65,14.65,0,0,1-3.87-10.49q0-6.87,3.81-11.1a12.13,12.13,0,0,1,9.39-4.23,12,12,0,0,1,7.08,2.11,12.73,12.73,0,0,1,4.49,6.06A20.72,20.72,0,0,1,128.18,31.76ZM108,29.62h12.23a2.06,2.06,0,0,0,1.69-.74,4,4,0,0,0,.6-2.52,8.18,8.18,0,0,0-2.06-5.63,6.32,6.32,0,0,0-4.87-2.32,6.54,6.54,0,0,0-5.32,2.8Q108,24,108,29.62Z"/><path class="cls-1" d="M132.13,17.45h12.39v2.08h-1.63a3,3,0,0,0-1.72.38,1.19,1.19,0,0,0-.51,1,3.83,3.83,0,0,0,.3,1.42l6.36,16,5.51-15.16a8,8,0,0,0-2-3,5.8,5.8,0,0,0-3.07-.59V17.45h13.63v2.08h-1.15a4,4,0,0,0-2.15.41,1.3,1.3,0,0,0-.59,1.13,3.68,3.68,0,0,0,.27,1.27l6.42,16,5.09-14.19a7.32,7.32,0,0,0,.51-2.41,1.76,1.76,0,0,0-.78-1.54,6.06,6.06,0,0,0-3-.63V17.45h11v2.08a6,6,0,0,0-3.1,1.28,7.2,7.2,0,0,0-1.78,2.91L164,46.52h-1.78l-7.94-19.74-7.1,19.74H145.4L135.26,21.57A3.44,3.44,0,0,0,134.18,20a4.14,4.14,0,0,0-2-.47Z"/><path class="cls-1" d="M207,31.76H186.81q.15,6.45,2.41,9.1a8.36,8.36,0,0,0,6.6,3q5.9,0,9.49-6.72l2,.84q-4.4,8.56-12.72,8.56a12.6,12.6,0,0,1-9.54-4.1,14.65,14.65,0,0,1-3.87-10.49q0-6.87,3.81-11.1a12.13,12.13,0,0,1,9.39-4.23,12,12,0,0,1,7.08,2.11,12.73,12.73,0,0,1,4.49,6.06A20.72,20.72,0,0,1,207,31.76Zm-20.22-2.14H199a2.06,2.06,0,0,0,1.69-.74,4,4,0,0,0,.6-2.52,8.18,8.18,0,0,0-2.06-5.63,6.32,6.32,0,0,0-4.87-2.32,6.54,6.54,0,0,0-5.32,2.8Q186.9,24,186.81,29.62Z"/><path class="cls-1" d="M222.06.6V41.52a1.64,1.64,0,0,0,.51,1.3,2.85,2.85,0,0,0,1.84.6h3v2.26h-16V43.42h2.83a2.85,2.85,0,0,0,2.06-.66,2.49,2.49,0,0,0,.68-1.87V6.54a2.74,2.74,0,0,0-.81-2.2,4,4,0,0,0-2.74-1h-2.53V1.12Z"/><path class="cls-1" d="M241.5.6V41.52a1.64,1.64,0,0,0,.51,1.3,2.85,2.85,0,0,0,1.84.6h3v2.26h-16V43.42h2.83a2.85,2.85,0,0,0,2.06-.66,2.49,2.49,0,0,0,.68-1.87V6.54a2.74,2.74,0,0,0-.81-2.2,4,4,0,0,0-2.74-1h-2.53V1.12Z"/><path class="cls-1" d="M258.31,32.6h-1.57q0-5.39-.3-8.08-.45-4.43-1.54-10.46a67.12,67.12,0,0,1-1.18-8.83,6.18,6.18,0,0,1,1.05-3.93A3.38,3.38,0,0,1,257.56,0a3.43,3.43,0,0,1,2.8,1.25,6.11,6.11,0,0,1,1,3.9,62.82,62.82,0,0,1-1.21,8.92q-1.08,5.85-1.45,9.69T258.31,32.6Zm-.75,6.57a3.52,3.52,0,0,1,2.61,1.08,3.6,3.6,0,0,1,1.07,2.62,3.5,3.5,0,0,1-1.08,2.56,3.66,3.66,0,0,1-5.17,0,3.5,3.5,0,0,1-1.07-2.59A3.61,3.61,0,0,1,255,40.24,3.5,3.5,0,0,1,257.56,39.17Z"/></svg>