<svg id="圖層_1" data-name="圖層 1" xmlns="http://www.w3.org/2000/svg" viewBox="0 0 277.63 67.35"><defs><style>.cls-1{fill:#fff;}</style></defs><title>tt_工作區域 7</title><path class="cls-1" d="M41.77,8c3.43.29,8.46,1.17,8.46,3.5s-5.1,3.28-11.3,4.59c-4.52.95-10.71,1.82-15.6,2.33-.29,2.92-.58,6.56-.66,10.5A42,42,0,0,1,36.3,27a5.43,5.43,0,0,0-.8-3.13l.87-.66a6.69,6.69,0,0,1,3.13,4c12,1.31,19.9,7.95,19.9,17.93,0,10.71-9.26,18.22-31.49,20.19l-.44-1.53c17.35-2.48,25.29-9.69,25.37-19,0-7.8-4.67-13.41-13.12-15a4.49,4.49,0,0,0-.07,1c-.87,4.74-5.61,12.9-12.17,19.39.95,1.6,1.82,2.62,1.82,3.86s-.51,3.28-2.33,3.28c-.87,0-2.48-.95-3.94-3.28-4.59,3.5-9.77,5.83-15.09,5.83C4.23,59.92,0,57.73,0,52.26,0,43.88,6.49,35.21,18.15,30.4c0-3.94.15-8,.22-11.59-1.75.07-3.64.15-5.25.15-5.9,0-8.75-2.62-10.2-5.9l.95-.87c1.82,1.89,4.74,2.7,8.75,2.7,1.68,0,4-.15,5.9-.29.07-2.19.15-5.32.15-6.49,0-2.77-.66-4.37-5.25-3.94l-.15-.29A5.27,5.27,0,0,1,18.15,1c4.52,0,8.31,1.75,8.31,4.08,0,1.09-1.38,2-1.75,3.79-.29,1.31-.58,3.06-.87,5.1a65.28,65.28,0,0,0,14-2.92c2.11-.73,3.35-1.75,3.57-2.77ZM9.84,54.67c3.21,0,7.07-1.9,10.64-4.59C18.08,44,18.08,36.81,18.08,33.53c-8.38,4.59-12.83,10.35-12.83,17C5.25,53.5,6.34,54.67,9.84,54.67ZM22.6,31.49c0,3.43,0,9.62,2.33,14.8,5.32-4.81,9.77-12,11-17A34.18,34.18,0,0,0,22.6,31.49Z"/><path class="cls-1" d="M97.09,59.77c19.46-3.13,26.68-14.29,26.68-25.8,0-13.41-5.83-24.2-21.72-24.2a33.2,33.2,0,0,0-6.34.73c2,1.24,3.57,4.15,3.57,7.87C99.27,32,89.8,54,78.86,54c-5.61,0-9.55-6.12-9.55-15.67,0-16.47,13.48-30.76,33-30.76,18,0,28,11,28,26.75,0,14-8.89,25-32.8,27ZM93.66,11c-10.93,3-19,13.63-19,27.12,0,5.47,1.6,9.55,4.45,9.55C86.74,47.67,95,28,95,15.74,95,13.7,94.32,11.66,93.66,11Z"/><path class="cls-1" d="M163,37.25v8.6c2.26.8,2.55,1.09,2.55,2,0,2.33-2,3.5-7.87,3.5h-9c-6.27,0-7.36-1.6-7.36-7.8V2.33l8.53.8c-.15,1-.66,1.46-2.84,1.75V24.71a68.37,68.37,0,0,0,11.3-11.15L165.16,18a1.83,1.83,0,0,1-1.53.73,5.35,5.35,0,0,1-1.31-.22A82.15,82.15,0,0,1,147,26.75V43.66c0,2.48.07,2.62,2,2.62h8.6a2.38,2.38,0,0,0,2.19-.95c.58-.73,1.6-4.45,2.55-8.09Zm19.32,19.54a1.42,1.42,0,0,1-1.17.58,5.22,5.22,0,0,1-1.39-.29c-5.47,4.23-15.82,8.6-24.71,10.28l-.58-1.09c7.65-2.84,16.62-8.67,21.21-13.78ZM199.42,0l7.07,5c-.58,1-1.46,1.38-3.5,1.38H188.2a84.42,84.42,0,0,1-5.54,10.28h11.81l2.48-3.21,6.78,4.81a4.65,4.65,0,0,1-2.7,1.31V52c0,.07-1.6,1.82-5.9,1.82v-3.5H173.91v2.19c0,.15-.73,2.26-5.83,2.26V14l6.2,2.7h6.12c.22-2.84.51-7,.66-10.28H162.17l-.44-1.6h33.89Zm-4.3,18.29H173.91v8.89h21.21Zm-21.21,10.5v9h21.21v-9Zm0,19.83h21.21V39.51H173.91Zm14.14,4.52c13.48,1.68,17.79,7.07,17.79,10.64a3.1,3.1,0,0,1-3,3.35,4.42,4.42,0,0,1-2.19-.66c-2.41-4.37-8.16-9.77-13-12.54Z"/><path class="cls-1" d="M241.4,59.77c19.46-3.13,26.68-14.29,26.68-25.8,0-13.41-5.83-24.2-21.72-24.2a33.2,33.2,0,0,0-6.34.73c2,1.24,3.57,4.15,3.57,7.87C243.59,32,234.11,54,223.18,54c-5.61,0-9.55-6.12-9.55-15.67,0-16.47,13.48-30.76,33-30.76,18,0,28,11,28,26.75,0,14-8.89,25-32.8,27ZM238,11C227,14,219,24.64,219,38.12c0,5.47,1.6,9.55,4.45,9.55,7.65,0,15.89-19.68,15.89-31.93C239.29,13.7,238.63,11.66,238,11Z"/></svg>