<svg id="圖層_1" data-name="圖層 1" xmlns="http://www.w3.org/2000/svg" viewBox="0 0 570.19 63.06"><defs><style>.cls-1{fill:#fff;}.cls-2{isolation:isolate;}</style></defs><title>tt_工作區域 1</title><path class="cls-1" d="M335.65,56.21c18.11-2.92,24.82-13.29,24.82-24,0-12.48-5.42-22.51-20.21-22.51a30.94,30.94,0,0,0-5.9.68c1.9,1.15,3.32,3.87,3.32,7.32,0,12.68-8.82,33.16-19,33.16-5.22,0-8.88-5.7-8.88-14.58,0-15.32,12.54-28.62,30.72-28.62,16.75,0,26,10.24,26,24.89,0,13-8.27,23.26-30.51,25.16Zm-3.19-45.37c-10.17,2.78-17.7,12.68-17.7,25.23,0,5.09,1.49,8.88,4.14,8.88,7.12,0,14.78-18.31,14.78-29.7A7.43,7.43,0,0,0,332.46,10.85Z"/><path class="cls-1" d="M392.06,19.39c8.48,1.63,11.19,5.22,11.19,7.87a2.75,2.75,0,0,1-2.58,2.92,3.14,3.14,0,0,1-2-.88c-.68-3.12-3.66-6.78-6.58-8.88V38.65c0,.07-.88,1.76-5.36,1.76V22.65A48.4,48.4,0,0,1,374,36.21l-.81-1c5.63-6,9.63-13.9,11.93-22H374.37L374,11.66h12.75V0l8.07.68c-.13.95-.75,1.42-2.71,1.63v9.36h3.46l3.19-4.41,6,4.54c-.54,1-1.36,1.36-3.19,1.36h-9.43Zm-6.92,26.17a16.67,16.67,0,0,1,.47,3.87c0,6.85-4.75,10.51-8.61,10.51-1.9,0-3.19-.88-3.19-2.37a3.62,3.62,0,0,1,2.44-3.05c3.46-1.08,7.46-4.27,7.8-9ZM419,49.71l-.07,7.39c2.31.75,2.64.95,2.64,1.76,0,2.1-2,3.19-8.54,3.19H399c-6.51,0-7.8-1-7.8-6V44.55l7.53.61c-.14.75-.47,1.15-2.17,1.36v9.63c0,1.49,0,1.49,2.71,1.49h13.83c1.63,0,2.17,0,2.78-.88a43.37,43.37,0,0,0,2.51-7.05Zm-21.77-9.56c10.65.47,14.1,4.75,14.1,7.66a2.64,2.64,0,0,1-2.51,2.85,3.19,3.19,0,0,1-1.83-.54c-1.7-3.53-6.24-7.32-10-9.22Zm14.24-5.22v2.71c0,.14-.68,2-5.29,2V2l5.63,2.51h14.38l2.37-3.19L435.19,6a5.28,5.28,0,0,1-2.92,1.42V37.3c0,.14-1.63,1.7-5.42,1.7V34.92ZM426.85,6H411.46v8h15.39ZM411.46,23.53h15.39v-8H411.46Zm0,9.9h15.39V25H411.46Zm9,11.12c12.14,2.51,16,8.07,16,11.8,0,2.17-1.29,3.66-2.92,3.66a3.51,3.51,0,0,1-2.24-.81c-1.36-5.09-6.44-10.92-11.26-14Z"/><path class="cls-1" d="M443.66,10.51a2.78,2.78,0,0,1,2.24-1c4.68,0,8.54,3.8,8.54,7.19a6.5,6.5,0,0,1-1,2.85c-1,2.92-2.24,6.65-2.24,15.33,0,7.39,4.14,13.09,6.24,13.09.95,0,1.49-.68,3.25-3.05s5.7-8.75,8.75-14l1.29.54c-6.51,14.31-8.14,17.9-8.14,19.26a1.54,1.54,0,0,0,.41,1.08,5.1,5.1,0,0,1,1.36,2.71c0,1.49-1.36,2-3.12,2-4.75,0-14.17-7.46-14.17-23.46,0-2.58.68-14.51.68-16.21,0-4-1.76-5.76-4-6.1Zm39.06,4.14C495.88,16.75,502,27.12,502,35c0,3-1,5.7-3.39,5.7-1.36,0-2.58-1-2.64-3.05-.41-9.83-5-19.05-13.83-21.63Z"/><path class="cls-1" d="M562.19,34.24l8,.68c-.07.95-.61,1.42-2.64,1.63V60.83c0,.14-.88,1.63-5.36,1.63v-6H519.41v5c0,.14-.75,1.63-5.36,1.63V34.24l8,.68c-.14.88-.68,1.42-2.64,1.63V55h18.38V27.8H522.73v2.92c0,.07-.88,1.56-5.29,1.56V6.44l8,.68c-.13.95-.68,1.42-2.71,1.63V26.31h15.05V.34l8.61.81c-.07,1-.88,1.56-3.05,1.83V26.31H558.8V6.44l8.07.68c-.14.95-.75,1.42-2.71,1.63V30.38c0,.07-.81,1.56-5.36,1.56V27.8H543.34V55h18.85Z"/><g class="cls-2"><path class="cls-1" d="M33,13.82c-6,7.58-10.37,14.89-13,21.8a73.19,73.19,0,0,0-4.79,24.86H8.24a69.86,69.86,0,0,1,2.13-14.62,49.79,49.79,0,0,1,6.51-13.43c2.93-4.39,5.05-7.31,6.25-8.91l5.05-6.25H7.84c-2.26,0-3.72.4-4.65,1.33S1.86,21,1.86,23.26H0V9.7H1.86V10c0,.93.66,1.46,2.13,1.46H33Z"/><path class="cls-1" d="M69.8,46.53H62v7.31c0,3.19,1.6,4.92,4.79,4.92h1.06v1.86H48.53V58.76h1.6c3.59,0,5.45-1.6,5.45-4.92V46.53H33.5V44.8l15-19C53.45,19.54,57.17,14.36,60,10.1h1.86V42.54h7.84v4Zm-14.09-4V22.33a101.85,101.85,0,0,0-9.57,10.5l-7.71,9.84H55.71Z"/><path class="cls-1" d="M109.82,13.82c-6,7.58-10.37,14.89-13,21.8A73.19,73.19,0,0,0,92,60.49H85.09a69.86,69.86,0,0,1,2.13-14.62,49.79,49.79,0,0,1,6.51-13.43c2.93-4.39,5.05-7.31,6.25-8.91L105,17.28H84.69c-2.26,0-3.72.4-4.65,1.33S78.71,21,78.71,23.26H76.85V9.7h1.86V10c0,.93.66,1.46,2.13,1.46h29Z"/></g><g class="cls-2"><path class="cls-1" d="M203.15,46.53h-7.84v7.31c0,3.19,1.6,4.92,4.79,4.92h1.06v1.86H181.88V58.76h1.6c3.59,0,5.45-1.6,5.45-4.92V46.53H166.86V44.8l15-19c4.92-6.25,8.64-11.43,11.43-15.69h1.86V42.54H203v4Zm-14.09-4V22.33a101.85,101.85,0,0,0-9.57,10.5l-7.71,9.84h17.28Z"/><path class="cls-1" d="M245.7,31.91a36.67,36.67,0,0,1-5.45,19.15c-4.25,7-9.44,10.5-15.82,10.5a13.76,13.76,0,0,1-8.51-2.92,18.75,18.75,0,0,1-5.58-7.18A27,27,0,0,1,208.21,40a38.74,38.74,0,0,1,5.19-19.15c4.12-7.18,9.17-10.9,15.42-10.9q8.18,0,12.76,7.18A25.65,25.65,0,0,1,245.7,31.91Zm-5.58,5.85c0-9.57-2.53-16.35-7.58-20.47-2.53-2-4.79-2.92-7-2.92q-6.58,0-9.57,7.18a32.73,32.73,0,0,0-2.26,12.76,30.91,30.91,0,0,0,3.59,14.62c2.93,5.58,6.65,8.38,11.43,8.38,4.25,0,7.31-2.26,9.44-6.91A39.32,39.32,0,0,0,240.11,37.76Z"/><path class="cls-1" d="M286.38,31.91a36.67,36.67,0,0,1-5.45,19.15c-4.25,7-9.44,10.5-15.82,10.5a13.76,13.76,0,0,1-8.51-2.92A18.75,18.75,0,0,1,251,51.45,27,27,0,0,1,248.89,40a38.74,38.74,0,0,1,5.19-19.15C258.2,13.69,263.25,10,269.5,10q8.18,0,12.76,7.18A26.69,26.69,0,0,1,286.38,31.91Zm-5.72,5.85c0-9.57-2.53-16.35-7.58-20.47-2.53-2-4.79-2.92-7-2.92q-6.58,0-9.57,7.18a32.73,32.73,0,0,0-2.26,12.76,30.91,30.91,0,0,0,3.59,14.62c2.93,5.58,6.65,8.38,11.43,8.38,4.25,0,7.31-2.26,9.44-6.91A36,36,0,0,0,280.67,37.76Z"/></g><g id="Line"><rect class="cls-1" x="125.11" y="35.5" width="24.73" height="3.99"/></g></svg>