<?xml version="1.0" encoding="UTF-8" standalone="no"?>
<svg width="22px" height="15px" viewBox="0 0 22 15" version="1.1" xmlns="http://www.w3.org/2000/svg" xmlns:xlink="http://www.w3.org/1999/xlink">
    <!-- Generator: Sketch 43.2 (39069) - http://www.bohemiancoding.com/sketch -->
    <title>Shape</title>
    <desc>Created with Sketch.</desc>
    <defs></defs>
    <g id="Page-1" stroke="none" stroke-width="1" fill="none" fill-rule="evenodd">
        <g id="index_pic" transform="translate(-368.000000, -1354.000000)" fill-rule="nonzero" fill="#9B9B9B">
            <g id="pic" transform="translate(0.000000, 743.000000)">
                <g id="Group-4" transform="translate(317.000000, 597.000000)">
                    <path d="M60.4602184,14 L55.944365,14 C54.8566047,14 53.966619,14.87473 53.966619,15.9438445 L53.966619,17.2397408 L53.6369947,17.2397408 C52.1866476,17.2397408 51,18.4060475 51,19.8315335 L51,26.4082073 C51,27.8336933 52.1866476,29 53.6369947,29 L64.4157104,29 C65.8660575,29 67.0527051,27.8336933 67.0527051,26.4082073 L67.0527051,26.2462203 L70.3819109,28.3520518 C70.6126479,28.4816415 70.8433849,28.5464363 71.1070844,28.5464363 C71.3378214,28.5464363 71.535596,28.4816415 71.7333706,28.3844492 C72.1618823,28.1576674 72.4255817,27.7041037 72.4255817,27.2181425 L72.4255817,19.0215983 C72.4255817,18.5356371 72.1618823,18.0820734 71.7333706,17.8552916 C71.304859,17.6285097 70.8104225,17.6609071 70.3819109,17.9200864 L67.0527051,20.0259179 L67.0527051,19.8639309 C67.0527051,18.4384449 65.8660575,17.2721382 64.4157104,17.2721382 L62.4379644,17.2721382 L62.4379644,15.9762419 C62.4379644,14.87473 61.5479787,14 60.4602184,14 Z M55.2851163,15.9438445 C55.2851163,15.587473 55.5817782,15.2958963 55.944365,15.2958963 L60.4602184,15.2958963 C60.8228052,15.2958963 61.1194671,15.587473 61.1194671,15.9438445 L61.1194671,17.2397408 L55.2851163,17.2397408 L55.2851163,15.9438445 Z M71.1070844,18.9892009 L71.1070844,18.9892009 L71.1070844,27.25054 L71.1070844,27.2829374 L67.0527051,24.7235421 L67.0527051,21.5485961 L71.1070844,18.9892009 Z M65.7342077,19.8315335 L65.7342077,26.4082073 C65.7342077,27.1209503 65.1408839,27.7041037 64.4157104,27.7041037 L53.6369947,27.7041037 C52.9118211,27.7041037 52.3184973,27.1209503 52.3184973,26.4082073 L52.3184973,19.8315335 C52.3184973,19.1187905 52.9118211,18.5356371 53.6369947,18.5356371 L64.4157104,18.5356371 C65.1408839,18.5356371 65.7342077,19.1187905 65.7342077,19.8315335 Z" id="Shape"></path>
                </g>
            </g>
        </g>
    </g>
</svg>